<?xml version="1.0" encoding="UTF-8" standalone="no"?>
<svg
   version="1.1"
   id="Layer_1"
   x="0px"
   y="0px"
   viewBox="0 0 477.21529 499.99999"
   enable-background="new 0 0 1667.8049 1747.4342"
   xml:space="preserve"
   sodipodi:docname="hand.svg"
   width="477.2153"
   height="500"
   inkscape:version="1.4 (86a8ad7, 2024-10-11)"
   xmlns:inkscape="http://www.inkscape.org/namespaces/inkscape"
   xmlns:sodipodi="http://sodipodi.sourceforge.net/DTD/sodipodi-0.dtd"
   xmlns="http://www.w3.org/2000/svg"
   xmlns:svg="http://www.w3.org/2000/svg"
   xmlns:rdf="http://www.w3.org/1999/02/22-rdf-syntax-ns#"
   xmlns:cc="http://creativecommons.org/ns#"
   xmlns:dc="http://purl.org/dc/elements/1.1/"><metadata
     id="metadata97"><rdf:RDF><cc:Work
         rdf:about=""><dc:format>image/svg+xml</dc:format><dc:type
           rdf:resource="http://purl.org/dc/dcmitype/StillImage" /><cc:license
           rdf:resource="http://creativecommons.org/publicdomain/zero/1.0/" /></cc:Work><cc:License
         rdf:about="http://creativecommons.org/publicdomain/zero/1.0/"><cc:permits
           rdf:resource="http://creativecommons.org/ns#Reproduction" /><cc:permits
           rdf:resource="http://creativecommons.org/ns#Distribution" /><cc:permits
           rdf:resource="http://creativecommons.org/ns#DerivativeWorks" /></cc:License></rdf:RDF></metadata><defs
     id="defs95" /><sodipodi:namedview
     pagecolor="#ffffff"
     bordercolor="#666666"
     borderopacity="1"
     objecttolerance="10"
     gridtolerance="10"
     guidetolerance="10"
     inkscape:pageopacity="0"
     inkscape:pageshadow="2"
     inkscape:window-width="1278"
     inkscape:window-height="1341"
     id="namedview93"
     showgrid="false"
     fit-margin-top="0"
     fit-margin-left="0"
     fit-margin-right="0"
     fit-margin-bottom="0"
     inkscape:zoom="1.2699638"
     inkscape:cx="255.5191"
     inkscape:cy="271.26758"
     inkscape:window-x="-8"
     inkscape:window-y="0"
     inkscape:window-maximized="0"
     inkscape:current-layer="Layer_1"
     inkscape:showpageshadow="2"
     inkscape:pagecheckerboard="0"
     inkscape:deskcolor="#d1d1d1"><inkscape:page
       x="0"
       y="0"
       width="477.2153"
       height="500"
       id="page2"
       margin="0"
       bleed="0" /></sodipodi:namedview><path
     d="m 3.118568e-5,224.22585 v 0 C -6.4315998e-8,223.55835 -6.4315998e-8,222.89085 -6.4315998e-8,222.22335 H 3.118568e-5 Z"
     id="path2"
     inkscape:connector-curvature="0"
     style="fill:none;stroke-width:0.3125" /><path
     d="m 403.16801,263.03056 v 37.8094 c -9.04334,0.42057 -18.08959,0.57744 -27.14171,0.6346 l 2.25028,-6.92094 -9.58566,6.95013 c -0.015,3e-5 -0.03,3e-5 -0.0448,6e-5 l -9.58572,-6.95016 2.26369,6.9621 c -13.79422,0.0178 -27.61356,0.0125 -41.39068,-0.5786 -2.09625,-0.0899 -4.19297,-0.17509 -6.29081,-0.21853 -1.13016,-0.0234 -3.01622,-0.42119 -4.01778,0.28706 -0.14422,0.102 -0.27678,0.22588 -0.40328,0.36057 l 2.21503,-6.81263 -9.60803,6.96638 -9.60806,-6.96638 3.67465,11.30172 -9.59681,6.95825 h 11.882 l 3.66362,11.28909 3.6636,-11.28909 h 1.8015 c 0.28656,5.66253 1.78931,11.24678 3.45246,16.63175 2.03085,6.57534 4.96597,13.13687 7.93775,19.33424 3.06794,6.39766 6.09941,12.80335 9.26788,19.15388 3.01887,6.05078 6.36031,12.05384 8.95743,18.31518 l -1.67128,1.21178 -9.5974,-6.97409 3.66318,11.28769 -9.61615,6.97224 h 11.88197 l 3.66368,11.28907 3.6636,-11.28907 h 2.1554 c 0.79178,2.96729 1.49906,5.96175 2.1936,8.9991 1.61931,7.08134 2.11746,14.656 2.06565,21.92437 -0.0493,6.92075 -0.34562,14.20087 -1.94897,20.9775 l -2.19215,-1.58941 3.68628,-11.29328 -9.61872,6.99541 -9.5974,-6.99541 3.66318,11.28766 -9.61615,6.97224 h 11.87506 l 3.67056,11.2891 3.67053,-11.2891 h 3.07172 c -1.42128,5.24216 -3.07016,10.35385 -5.70941,15.19972 -3.20884,5.89172 -7.59212,11.04738 -12.68715,15.39344 -5.21534,4.44868 -11.34191,8.09125 -17.8659,10.23753 -1.88763,0.62097 -3.80875,1.0974 -5.73182,1.59147 -1.44293,0.37071 -3.43893,0.31265 -4.76237,0.89446 -2.67222,1.17482 -7.16187,0.42057 -10.20591,0.42057 -0.42271,-0.84632 -2.17715,-0.88032 -2.9724,-1.17894 -1.01972,-0.38334 -1.98703,-0.92519 -2.79213,-1.66459 -1.89593,-1.74135 -2.29593,-4.08547 -2.42471,-6.53844 -0.60472,-11.51787 -2.00938,-22.94481 -3.56466,-34.35518 h 10.67987 l -9.60843,-6.96666 3.68628,-11.29325 -6.66422,4.84672 c -2.13319,-13.176 -5.90694,-26.37968 -11.36872,-38.49503 -0.82056,-1.82015 -1.71259,-3.61043 -2.66259,-5.36996 h 7.40844 l 3.66362,11.28906 3.66363,-11.28906 h 11.88196 l -9.60843,-6.96666 3.68628,-11.29328 -9.61869,6.97409 -9.5974,-6.97409 3.66318,11.28769 -6.43715,4.66731 c -2.09488,-3.589 -4.46819,-7.01488 -7.14975,-10.18741 -3.53794,-4.18571 -7.595,-7.80956 -11.80738,-11.27278 l 1.58975,-4.8894 h 11.87507 l -9.61616,-6.97225 3.66316,-11.28766 -9.59735,6.99544 -9.61871,-6.99544 3.68628,11.29325 -3.42885,2.4861 c -7.62684,-6.60257 -14.40643,-13.83219 -18.58456,-23.42603 -0.10393,-0.2386 -0.20528,-0.47828 -0.3089,-0.717 h 10.36968 l -9.59368,-6.97725 3.67156,-11.31356 -9.34087,6.79325 c -3.86516,-9.20325 -7.68438,-18.42322 -11.86416,-27.4925 -5.98934,-12.99553 -12.78219,-25.72325 -20.44068,-37.81393 -0.14947,-0.23594 -0.30044,-0.4726 -0.45116,-0.70916 l 2.73241,-8.41965 h 11.88203 l -9.61866,-6.99541 3.66566,-11.29537 -9.59738,6.99543 -9.61872,-6.99543 3.68882,11.301 -2.59175,1.8849 c -4.84178,-6.12903 -10.333,-11.74775 -16.74194,-15.86428 -2.78856,-1.79115 -5.78909,-3.31268 -9.05625,-3.98287 -3.19565,-0.65556 -6.50068,-0.37185 -9.7409,-0.38997 -0.88725,-0.005 -3.50263,0.47266 -4.10631,-0.45512 -0.51625,-0.79329 -0.2291,-2.29266 -0.2291,-3.18469 0,-1.44338 -3e-5,-2.88678 -3e-5,-4.33019 h 283.4049 v 40.80718 z m -191.97591,2.86857 -9.60803,6.96637 -9.60806,-6.96637 3.665,11.29331 -9.58713,6.96662 h 11.84425 l 3.67053,11.28909 3.67056,-11.28909 h 11.87506 l -9.59118,-6.95412 z m 33.40456,-28.65453 -9.59735,6.99543 -9.61871,-6.99543 3.68881,11.30097 -9.61094,6.98978 h 11.88197 l 3.66359,11.28909 3.66366,-11.28909 h 11.88197 l -9.61866,-6.99541 z m -3.66878,68.59265 3.66878,-11.28363 -9.59735,6.97409 -9.61871,-6.97409 3.6919,11.28919 -9.61406,6.97075 h 11.88197 l 3.66359,11.28909 3.66366,-11.28909 h 11.88196 z m 37.10418,-39.93812 -9.61869,6.97409 -9.5974,-6.97409 3.66318,11.28768 -9.61615,6.97225 h 11.87506 l 3.67056,11.28909 3.67053,-11.28909 h 11.87506 l -9.60843,-6.96665 z m -3.68885,68.57914 3.68885,-11.301 -9.61869,6.99544 -9.5974,-6.99544 3.66568,11.29541 -9.61865,6.99544 h 11.882 l 3.66362,11.28903 3.66363,-11.28903 h 11.88196 z m 37.09341,17.35353 -9.60803,6.98766 -9.60806,-6.98766 3.66906,11.30578 -9.59119,6.95413 h 11.87506 l 3.67056,11.28909 3.67053,-11.28909 h 11.84425 l -9.58712,-6.96663 z m -3.66497,68.58099 3.66497,-11.27196 -9.60803,6.96637 -9.60806,-6.96637 3.66906,11.28449 -9.59119,6.97544 h 11.882 l 3.66362,11.28909 3.66363,-11.28909 h 11.85115 z m -9.59128,64.26615 3.66362,11.28906 3.66363,-11.28906 h 11.85115 l -9.58712,-6.96665 3.66497,-11.29328 -9.60803,6.96637 -9.60806,-6.96637 3.66906,11.30578 -9.59119,6.95415 z m 13.25625,-247.43434 -9.60803,6.98765 -9.60806,-6.98765 3.67156,11.31353 -9.59369,6.97722 h 11.882 l 3.66362,11.28909 3.6636,-11.28909 h 11.85118 l -9.58965,-6.98975 z m 33.4354,28.65453 -9.61872,6.97409 -9.5974,-6.97409 3.66318,11.28771 -9.61615,6.97225 h 11.87506 l 3.67056,11.28909 3.67053,-11.28909 h 11.87503 l -9.6084,-6.96662 z m 33.40456,-28.65453 -9.60806,6.98768 -9.60803,-6.98768 3.66749,11.301 -9.58965,6.98975 h 11.88203 l 3.66362,11.28909 3.6636,-11.28909 h 11.85112 l -9.58962,-6.98975 z"
     id="path4"
     inkscape:connector-curvature="0"
     style="fill:#578de6;stroke-width:0.3125;fill-opacity:1" /><path
     d="m 165.41276,258.34663 c -0.63959,-0.94038 -1.29175,-1.87825 -1.95562,-2.81128 h 1.04331 z"
     id="path6"
     inkscape:connector-curvature="0"
     style="fill:#3c3a6e;stroke-width:0.3125" /><path
     d="M 3.118568e-5,222.22338 H 99.827925 c -0.755719,5.28003 -3.053437,10.04544 -7.401031,13.53334 -5.071655,4.06882 -11.048623,4.38794 -17.273622,4.40191 -10.676093,0.024 -21.352185,0.0283 -32.028278,0.0188 l 0.951782,-2.93281 -4.0185,2.92903 c -3.566312,-0.005 -7.132624,-0.003 -10.698936,-0.0132 -0.155625,-3.1e-4 -0.311531,-1.8e-4 -0.467438,0 l -4.000437,-2.91587 0.95375,2.9389 c -5.776811,0.0504 -11.566217,-0.045 -16.5991225,-3.33415 C 6.8058741,235.25469 4.6574056,233.21591 3.0904683,230.74732 2.3710934,229.61394 1.7777185,228.40263 1.312031,227.14388 1.0628748,226.47051 0.88603107,224.37757 -6.4315987e-8,224.22588 v -2.0025 z"
     id="path8"
     inkscape:connector-curvature="0"
     style="fill:#578de6;stroke-width:0.3125;fill-opacity:1" /><polygon
     points="929.2656,780.5459 929.2656,780.5458 929.2654,780.5459 "
     id="polygon10"
     style="fill:#3c3a6e"
     transform="matrix(0.31249996,0,0,-0.31249996,-21.986841,523.03653)" /><path
     d="m 231.44591,370.43752 c -0.14294,-0.11519 -0.28556,-0.2305 -0.42822,-0.34581 h 0.31578 z"
     id="path12"
     inkscape:connector-curvature="0"
     style="fill:#3c3a6e;stroke-width:0.3125" /><polygon
     points="1036.2095,158.8838 1066.9552,181.1761 1055.2273,145.0376 1085.9061,122.7443 1047.9824,122.7443 1036.2588,86.6193 1024.5352,122.7443 986.5128,122.7443 1017.2046,144.9977 1005.4636,181.1761 "
     id="polygon14"
     style="fill:#ffffff"
     transform="matrix(0.31249996,0,0,-0.31249996,-21.986841,523.03653)" /><path
     d="m 274.34578,449.05776 9.60843,6.96665 h -10.67987 c -0.44578,-3.2705 -0.90331,-6.53971 -1.35869,-9.80921 -0.16722,-1.20054 -0.35325,-2.40216 -0.54781,-3.604 l 6.66422,-4.84672 z"
     id="path16"
     inkscape:connector-curvature="0"
     style="fill:#ffffff;stroke-width:0.3125" /><path
     d="m 335.24855,467.31351 -3.67056,-11.2891 h -11.87506 l 9.61615,-6.97225 -3.66318,-11.28765 9.5974,6.99541 9.61872,-6.99541 -3.68628,11.29328 2.19215,1.58941 c -0.0679,0.287 -0.13434,0.57453 -0.20703,0.85962 -0.38612,1.51469 -0.77431,3.02116 -1.18003,4.51759 h -3.07172 z"
     id="path18"
     inkscape:connector-curvature="0"
     style="fill:#ffffff;stroke-width:0.3125" /><polygon
     points="986.5128,306.0346 1017.2046,328.356 1005.4636,364.4663 1036.2095,342.1739 1066.9552,364.4663 1055.2273,328.396 1085.9061,306.0346 1047.9824,306.0346 1036.2588,269.9095 1024.5352,306.0346 "
     id="polygon20"
     style="fill:#ffffff"
     transform="matrix(0.31249996,0,0,-0.31249996,-21.986841,523.03653)" /><path
     d="m 258.81597,380.4863 9.5974,6.97409 9.61869,-6.97409 -3.68628,11.29328 9.60843,6.96665 h -11.88196 l -3.66363,11.28906 -3.66362,-11.28906 h -7.40844 c -0.41869,-0.7755 -0.85025,-1.54375 -1.29456,-2.30493 l 6.43715,-4.66732 z"
     id="path22"
     inkscape:connector-curvature="0"
     style="fill:#ffffff;stroke-width:0.3125" /><path
     d="m 335.24855,410.03533 -3.66369,-11.28907 H 319.7029 l 9.61615,-6.97224 -3.66319,-11.28769 9.59741,6.97409 1.67128,-1.21178 c 0.22316,0.538 0.44281,1.07722 0.65425,1.61922 1.40331,3.59712 2.51169,7.21662 3.48872,10.8784 h -2.15541 z"
     id="path24"
     inkscape:connector-curvature="0"
     style="fill:#ffffff;stroke-width:0.3125" /><path
     d="m 225.38056,351.8318 9.61872,6.99544 9.59734,-6.99544 -3.66315,11.28766 9.61615,6.97225 h -11.87506 l -1.58975,4.8894 c -1.13528,-0.93334 -2.27959,-1.85734 -3.43075,-2.77475 -0.73878,-0.58878 -1.47506,-1.17806 -2.20818,-1.76884 l -0.11244,-0.34581 h -0.31578 c -1.82388,-1.47435 -3.62428,-2.96088 -5.37969,-4.48057 l 3.42884,-2.48609 z"
     id="path26"
     inkscape:connector-curvature="0"
     style="fill:#ffffff;stroke-width:0.3125" /><polygon
     points="1024.5129,489.4235 986.5128,489.4235 1017.2046,511.6767 1005.4636,547.8552 1036.2095,525.4947 1066.9552,547.8552 1055.2273,511.7167 1085.9061,489.4235 1048.0045,489.4235 1036.2588,453.2984 "
     id="polygon28"
     style="fill:#ffffff"
     transform="matrix(0.31249996,0,0,-0.31249996,-21.986841,523.03653)" /><path
     d="m 207.52054,334.49084 9.59368,6.97724 h -10.36968 c -1.65863,-3.82159 -3.28069,-7.65774 -4.89328,-11.49746 l 9.34081,-6.79335 z"
     id="path30"
     inkscape:connector-curvature="0"
     style="fill:#ffffff;stroke-width:0.3125" /><polygon
     points="879.5195,581.019 910.2993,603.4044 898.5691,639.5497 929.2808,617.1642 960.0606,639.5497 948.2563,603.3865 979.0115,581.019 940.9891,581.019 929.2656,544.8941 917.5419,581.019 "
     id="polygon32"
     style="fill:#ffffff"
     transform="matrix(0.31249996,0,0,-0.31249996,-21.986841,523.03653)" /><polygon
     points="772.625,672.7136 803.39,695.02 791.5758,731.1454 822.3557,708.8282 853.0673,731.1454 841.3272,695.0378 872.1169,672.7136 834.0945,672.7136 822.3708,636.5885 810.6473,672.7136 "
     id="polygon34"
     style="fill:#ffffff"
     transform="matrix(0.31249996,0,0,-0.31249996,-21.986841,523.03653)" /><path
     d="m 301.84399,324.10265 -3.66362,-11.28909 h -11.882 l 9.59681,-6.95825 -3.67465,-11.30172 9.60806,6.96637 9.60803,-6.96637 -2.21503,6.81262 c -1.61957,1.72404 -1.83838,5.93722 -1.9301,7.96028 -0.0528,1.16504 -0.0411,2.32757 0.0175,3.48704 h -1.8015 z"
     id="path36"
     inkscape:connector-curvature="0"
     style="fill:#ffffff;stroke-width:0.3125" /><path
     d="m 376.0263,301.47456 c -2.44466,0.0154 -4.88979,0.0239 -7.33535,0.0292 l 9.58566,-6.95012 z"
     id="path38"
     inkscape:connector-curvature="0"
     style="fill:#ffffff;stroke-width:0.3125" /><path
     d="m 368.6462,301.50381 c -1.03193,0.002 -2.06378,0.005 -3.0959,0.006 -1.40832,0.002 -2.81728,0.004 -4.22616,0.005 l -2.26369,-6.9621 z"
     id="path40"
     inkscape:connector-curvature="0"
     style="fill:#ffffff;stroke-width:0.3125" /><polygon
     points="703.6318,764.408 665.7303,764.408 696.4091,786.7012 684.6812,822.8398 715.4269,800.5474 746.1727,822.8398 734.4318,786.6613 765.1235,764.408 727.1234,764.408 715.3776,728.283 "
     id="polygon42"
     style="fill:#ffffff"
     transform="matrix(0.31249996,0,0,-0.31249996,-21.986841,523.03653)" /><path
     d="m 272.07915,284.15906 -3.67053,11.28909 -3.67056,-11.28909 H 252.863 l 9.61615,-6.97225 -3.66318,-11.28768 9.5974,6.97409 9.61869,-6.97409 -3.68628,11.29328 9.60843,6.96665 z m -3.67053,-5.04309 h -3e-5 z"
     id="path44"
     inkscape:connector-curvature="0"
     style="fill:#ffffff;stroke-width:0.3125" /><polygon
     points="1131.4076,764.408 1093.4073,764.408 1124.1791,786.7192 1112.4569,822.8398 1143.1686,800.5228 1173.9485,822.8398 1162.1523,786.7012 1192.8993,764.408 1154.8992,764.408 1143.1534,728.283 "
     id="polygon46"
     style="fill:#ffffff"
     transform="matrix(0.31249996,0,0,-0.31249996,-21.986841,523.03653)" /><path
     d="m 43.124994,240.17741 c -1.022249,-9.4e-4 -2.044468,-0.002 -3.066718,-0.004 l 4.0185,-2.92903 z"
     id="path48"
     inkscape:connector-curvature="0"
     style="fill:#ffffff;stroke-width:0.3125" /><path
     d="m 28.891934,240.16047 c -1.012406,0.001 -2.029281,0.0142 -3.046687,0.023 l -0.95375,-2.9389 z"
     id="path50"
     inkscape:connector-curvature="0"
     style="fill:#ffffff;stroke-width:0.3125" /><path
     d="m 158.5406,237.2446 9.61872,6.99543 9.59738,-6.99543 -3.66566,11.29537 9.61866,6.99541 h -11.88203 l -2.73241,8.41965 c -1.18597,-1.86125 -2.41075,-3.73872 -3.68253,-5.60837 l -0.91231,-2.81128 h -1.04332 c -1.22834,-1.72641 -2.49984,-3.43435 -3.8195,-5.10488 l 2.59175,-1.8849 z"
     id="path52"
     inkscape:connector-curvature="0"
     style="fill:#ffffff;stroke-width:0.3125" /><polygon
     points="810.6473,856.0038 772.625,856.0038 803.38,878.3712 791.5758,914.5343 822.3557,892.1489 853.0673,914.5343 841.3372,878.3891 872.1169,856.0038 834.0945,856.0038 822.3708,819.8788 "
     id="polygon54"
     style="fill:#ffffff"
     transform="matrix(0.31249996,0,0,-0.31249996,-21.986841,523.03653)" /><polygon
     points="1024.5352,856.0038 986.5128,856.0038 1017.2126,878.331 1005.4636,914.5343 1036.2095,892.1738 1066.9552,914.5343 1055.2192,878.3711 1085.9061,856.0038 1047.9823,856.0038 1036.2588,819.8788 "
     id="polygon56"
     style="fill:#ffffff"
     transform="matrix(0.31249996,0,0,-0.31249996,-21.986841,523.03653)" /><polygon
     points="1238.4231,856.0038 1200.4006,856.0038 1231.0875,878.3711 1219.3516,914.5343 1250.0973,892.1737 1280.8431,914.5343 1269.1071,878.3711 1299.7938,856.0038 1261.8702,856.0038 1250.1467,819.8788 "
     id="polygon58"
     style="fill:#ffffff"
     transform="matrix(0.31249996,0,0,-0.31249996,-21.986841,523.03653)" /><path
     d="m 451.14144,291.40668 c -5.31353,4.26416 -11.70909,6.04738 -18.32421,7.09216 -7.33388,1.15831 -14.8895,1.46859 -22.29363,1.94337 -2.45165,0.15716 -4.90359,0.28375 -7.35562,0.39779 v -37.80944 h 69.52149 c -2.21119,4.72088 -5.09437,9.23394 -8.08,13.39238 -3.84434,5.35465 -8.30425,10.83978 -13.46803,14.98374 z"
     id="path60"
     inkscape:connector-curvature="0"
     style="fill:#ffffff;stroke-width:0.3125" /><path
     d="m 100.10671,218.94148 c -0.0297,1.11168 -0.124879,2.20656 -0.278754,3.28184 H 3.118568e-5 -6.4315998e-8 c 0,-13.59212 0,-27.18422 0,-40.77637 H 100.16699 c 0.0807,12.49668 0.27343,25.01621 -0.0603,37.49453 z"
     id="path62"
     inkscape:connector-curvature="0"
     style="fill:#ffffff;stroke-width:0.3125" /><path
     d="m 119.76314,222.22332 c -3e-5,-2.22347 -3e-5,-4.44691 -6e-5,-6.67031 -6e-5,-11.36869 -9.4e-4,-22.73734 -0.001,-34.10603 h 357.17205 c -0.38944,2.05922 -1.26572,4.05731 -2.18044,5.89722 -2.94434,5.92278 -6.79016,11.38487 -10.02384,17.14871 -1.70825,3.04516 -3.486,6.33725 -4.00397,9.834 -0.43903,2.96391 0.47959,5.45832 1.89644,7.89644 h -59.45403 -283.4049 z"
     id="path64"
     inkscape:connector-curvature="0"
     style="fill:#ffffff;stroke-width:0.3125" /><path
     d="m 1.283781,22.692407 c 0.5814374,-1.576719 1.4359373,-3.084438 2.483781,-4.474375 h 92.420863 c 3.640843,4.954718 3.964655,10.802874 3.963125,16.870717 -0.002,7.978842 -0.003,15.957685 -0.004,23.936497 H -6.4315998e-8 c 0,-5.232625 0,-10.465312 0,-15.697967 0,-3.979218 0,-7.958343 0,-11.937436 0,-1.836625 0,-3.673093 0,-5.509656 C 0.97109356,25.682781 1.0096248,23.435969 1.283781,22.692407 Z"
     id="path66"
     inkscape:connector-curvature="0"
     style="fill:#ffffff;stroke-width:0.3125" /><path
     d="m 119.73448,32.209499 c -9.3e-4,-1.955875 -0.2669,-4.123187 0.0362,-6.056187 0.19704,-1.255999 1.30391,-1.400437 2.36094,-1.610343 3.45041,-0.685344 6.91034,-1.324375 10.36978,-1.962094 7.11388,-1.311343 14.23091,-2.602218 21.34228,-3.927874 0.78266,-0.145906 1.56575,-0.289969 2.34856,-0.435 h 260.94028 c 3.08838,2.548437 6.04016,5.264155 8.79738,8.156655 4.38612,4.601406 9.62199,10.231905 11.42762,16.486967 1.022,3.540156 0.58234,7.451218 0.54719,11.08653 -0.0163,1.692312 -0.0275,3.384718 -0.041,5.077061 H 119.74186 c -0.003,-8.93853 -0.003,-17.877154 -0.007,-26.815715 z"
     id="path68"
     inkscape:connector-curvature="0"
     style="fill:#ffffff;stroke-width:0.3125" /><path
     d="M 100.13805,140.63977 H -6.4315998e-8 c 0,-9.48081 0,-18.96163 0,-28.44247 0,-4.12162 0,-8.24322 0,-12.364872 H 100.14164 c -10e-4,13.602502 -0.002,27.204842 -0.004,40.807342 z"
     id="path70"
     inkscape:connector-curvature="0"
     style="fill:#ffffff;stroke-width:0.3125" /><path
     d="m 119.75311,99.832428 h 343.70108 c 2.68303,4.701872 3.73803,9.607782 2.13769,15.335432 -1.91413,6.85094 -5.21847,13.43041 -7.63953,20.12391 -0.63,1.74187 -1.18453,3.52859 -1.54725,5.348 H 119.76036 c -9.4e-4,-13.6025 -0.005,-27.20484 -0.007,-40.807342 z"
     id="path72"
     inkscape:connector-curvature="0"
     style="fill:#ffffff;stroke-width:0.3125" /><polygon
     points="389.8073,962.6024 389.8073,962.6022 70.358,962.6022 70.3579,962.6022 70.3579,962.6024 70.358,962.6024 "
     id="polygon74"
     style="fill:#b22134"
     transform="matrix(0.31249996,0,0,-0.31249996,-21.986841,523.03653)" /><path
     d="M 403.16801,263.03056 V 222.22338 H 119.76314 c 0,-3e-5 0,-3e-5 0,-6e-5 h 283.4049 59.45403 c 0.24615,0.4235 0.50543,0.8455 0.77721,1.26775 3.64116,5.65628 8.34203,10.64103 11.67522,16.49046 1.72894,3.03419 2.40872,5.87575 2.04635,9.3696 -0.3241,3.12381 -1.53297,6.3135 -2.59175,9.25528 -0.53691,1.49197 -1.15735,2.96762 -1.8396,4.42415 z"
     id="path76"
     inkscape:connector-curvature="0"
     style="fill:#b62022;stroke-width:0.3125;fill-opacity:1" /><path
     d="m 100.13514,173.12329 c -3.1e-4,2.77278 0.0139,5.54788 0.0318,8.32366 H -6.4315998e-8 c 0,-13.60241 0,-27.20478 0,-40.80718 H 100.13805 c -9.4e-4,10.82781 -0.002,21.65565 -0.003,32.48352 z"
     id="path78"
     inkscape:connector-curvature="0"
     style="fill:#b62022;stroke-width:0.3125;fill-opacity:1" /><path
     d="M 119.76036,140.63977 H 456.4051 c -0.31322,1.57096 -0.48378,3.16628 -0.43056,4.77912 0.10831,3.28309 1.97975,6.05675 3.87259,8.602 4.05534,5.45331 8.98997,10.18669 13.06784,15.62084 1.92531,2.56556 3.90681,5.52947 4.19403,8.80963 0.088,1.00562 0.0119,2.00756 -0.17512,2.99559 H 119.76186 c -2.2e-4,-13.60237 -6.3e-4,-27.20478 -0.002,-40.80718 z"
     id="path80"
     inkscape:connector-curvature="0"
     style="fill:#b62022;stroke-width:0.3125;fill-opacity:1" /><path
     d="m 100.1433,81.100243 c -6.3e-4,6.243999 -10e-4,12.488186 -0.002,18.732185 H -6.4315998e-8 c 0,-11.182811 0,-22.365685 0,-33.548465 0,-2.419593 0,-4.839186 0,-7.258717 H 100.14727 c -0.001,7.358311 -0.003,14.716654 -0.004,22.074997 z"
     id="path82"
     inkscape:connector-curvature="0"
     style="fill:#b62022;stroke-width:0.3125;fill-opacity:1" /><path
     d="m 119.74186,59.025246 h 318.12196 c -0.0153,1.914812 -0.0327,3.829562 -0.0463,5.744405 -0.0501,7.026718 4.143,11.761311 8.88275,16.457592 4.91656,4.871374 10.27843,9.481749 14.42118,15.063029 0.87163,1.174187 1.65347,2.35175 2.33275,3.542187 H 119.75311 c -0.003,-13.602404 -0.007,-27.204809 -0.0113,-40.807213 z"
     id="path84"
     inkscape:connector-curvature="0"
     style="fill:#b62022;stroke-width:0.3125;fill-opacity:1" /><path
     d="m 13.339279,11.144346 c 3.072688,-1.067188 6.188687,-1.084532 9.402187,-1.086594 3.633218,-0.0031 7.266436,-0.0041 10.899717,-0.0047 15.138498,-0.0037 30.276996,0.0031 45.415526,-0.0034 6.277405,-0.0031 12.155686,2.276375 16.304247,7.124187 0.29375,0.343281 0.568375,0.691687 0.827438,1.044187 H 3.767562 c 2.4306871,-3.22425 5.9185929,-5.804999 9.571717,-7.073655 z"
     id="path86"
     inkscape:connector-curvature="0"
     style="fill:#b62022;stroke-width:0.3125;fill-opacity:1" /><path
     d="m 196.15719,10.806002 c 6.91157,-1.3450313 13.84522,-2.6079686 20.77119,-3.8776872 3.292,-0.6036249 6.70359,-1.4703123 10.04068,-1.711906 3.383,-0.2449687 6.7596,-0.3841875 10.13916,-0.7162499 14.66187,-1.4404373 29.442,-2.3865935 44.16315,-2.9099684 29.82247,-1.06009362 59.79296,-2.8330621 89.58799,-0.2684062 7.06981,0.6085624 14.31397,1.4549685 21.19662,3.1853746 6.70441,1.685531 12.48981,4.4501869 18.15781,8.4342491 2.36969,1.665625 4.67906,3.428468 6.91875,5.276593 H 156.19226 c 13.32116,-2.46825 26.66803,-4.824312 39.96493,-7.411999 z"
     id="path88"
     inkscape:connector-curvature="0"
     style="fill:#b62022;stroke-width:0.3125;fill-opacity:1" /></svg>
