<?xml version="1.0" encoding="UTF-8" standalone="no"?>
<svg
   version="1.1"
   id="Layer_1"
   x="0px"
   y="0px"
   viewBox="0 0 477.21529 499.99999"
   enable-background="new 0 0 1667.8049 1747.4342"
   xml:space="preserve"
   sodipodi:docname="hand.svg"
   width="477.2153"
   height="500"
   inkscape:version="1.4 (86a8ad7, 2024-10-11)"
   xmlns:inkscape="http://www.inkscape.org/namespaces/inkscape"
   xmlns:sodipodi="http://sodipodi.sourceforge.net/DTD/sodipodi-0.dtd"
   xmlns="http://www.w3.org/2000/svg"
   xmlns:svg="http://www.w3.org/2000/svg"
   xmlns:rdf="http://www.w3.org/1999/02/22-rdf-syntax-ns#"
   xmlns:cc="http://creativecommons.org/ns#"
   xmlns:dc="http://purl.org/dc/elements/1.1/"><metadata
     id="metadata97"><rdf:RDF><cc:Work
         rdf:about=""><dc:format>image/svg+xml</dc:format><dc:type
           rdf:resource="http://purl.org/dc/dcmitype/StillImage" /></cc:Work></rdf:RDF></metadata><defs
     id="defs95" /><sodipodi:namedview
     pagecolor="#ffffff"
     bordercolor="#666666"
     borderopacity="1"
     objecttolerance="10"
     gridtolerance="10"
     guidetolerance="10"
     inkscape:pageopacity="0"
     inkscape:pageshadow="2"
     inkscape:window-width="2560"
     inkscape:window-height="1351"
     id="namedview93"
     showgrid="false"
     fit-margin-top="0"
     fit-margin-left="0"
     fit-margin-right="0"
     fit-margin-bottom="0"
     inkscape:zoom="1.796"
     inkscape:cx="238.58575"
     inkscape:cy="249.7216"
     inkscape:window-x="-9"
     inkscape:window-y="-9"
     inkscape:window-maximized="1"
     inkscape:current-layer="Layer_1"
     inkscape:showpageshadow="2"
     inkscape:pagecheckerboard="0"
     inkscape:deskcolor="#d1d1d1"><inkscape:page
       x="0"
       y="0"
       width="477.2153"
       height="500"
       id="page2"
       margin="0"
       bleed="0" /></sodipodi:namedview><g
     id="g90"
     transform="matrix(0.31249996,0,0,-0.31249996,-21.986841,523.03653)"><path
       d="m 70.358,956.1943 v 0 c -1e-4,2.136 -1e-4,4.272 -1e-4,6.408 h 1e-4 z"
       id="path2"
       inkscape:connector-curvature="0"
       style="fill:none" /><path
       d="M 1360.4957,832.0192 V 711.0291 c -28.9387,-1.3458 -57.8867,-1.8478 -86.8535,-2.0307 l 7.2009,22.147 -30.6741,-22.2404 c -0.048,-10e-5 -0.096,-10e-5 -0.1432,-2e-4 l -30.6743,22.2405 7.2438,-22.2787 c -44.1415,-0.057 -88.3634,-0.0401 -132.4502,1.8515 -6.708,0.2876 -13.4175,0.5603 -20.1306,0.6993 -3.6165,0.0749 -9.6519,1.3478 -12.8569,-0.9186 -0.4615,-0.3264 -0.8857,-0.7228 -1.2905,-1.1538 l 7.0881,21.8004 -30.7457,-22.2924 -30.7458,22.2924 11.7589,-36.1655 -30.7098,-22.2664 h 38.0224 l 11.7236,-36.1251 11.7235,36.1251 h 5.7648 c 0.917,-18.1201 5.7258,-35.9897 11.0479,-53.2216 6.4987,-21.0411 15.8911,-42.038 25.4008,-61.8696 9.8174,-20.4725 19.5181,-40.9707 29.6572,-61.2924 9.6604,-19.3625 20.353,-38.5723 28.6638,-58.6086 l -5.3481,-3.8777 -30.7117,22.3171 11.7222,-36.1206 -30.7717,-22.3112 h 38.0223 l 11.7238,-36.125 11.7235,36.125 h 6.8973 c 2.5337,-9.4953 4.797,-19.0776 7.0195,-28.7971 5.1818,-22.6603 6.7759,-46.8992 6.6101,-70.158 -0.1577,-22.1464 -1.106,-45.4428 -6.2367,-67.128 l -7.0149,5.0861 11.7961,36.1385 -30.7799,-22.3853 -30.7117,22.3853 11.7222,-36.1205 -30.7717,-22.3112 h 38.0002 l 11.7458,-36.1251 11.7457,36.1251 h 9.8295 c -4.5481,-16.7749 -9.8245,-33.1323 -18.2701,-48.6391 -10.2683,-18.8535 -24.2948,-35.3516 -40.5989,-49.259 -16.6891,-14.2358 -36.2941,-25.892 -57.1709,-32.7601 -6.0404,-1.9871 -12.188,-3.5117 -18.3418,-5.0927 -4.6174,-1.1863 -11.0046,-1.0005 -15.2396,-2.8623 -8.5511,-3.7594 -22.918,-1.3458 -32.6589,-1.3458 -1.3527,2.7082 -6.9669,2.817 -9.5117,3.7726 -3.2631,1.2267 -6.3585,2.9606 -8.9348,5.3267 -6.067,5.5723 -7.347,13.0735 -7.7591,20.923 -1.9351,36.8572 -6.43,73.4234 -11.4069,109.9366 h 34.1756 l -30.747,22.2933 11.7961,36.1384 -21.3255,-15.5095 c -6.8262,42.1632 -18.9022,84.415 -36.3799,123.1841 -2.6258,5.8245 -5.4803,11.5534 -8.5203,17.1839 h 23.707 l 11.7236,-36.125 11.7236,36.125 h 38.0223 l -30.747,22.2933 11.7961,36.1385 -30.7798,-22.3171 -30.7117,22.3171 11.7222,-36.1206 -20.5989,-14.9354 c -6.7036,11.4848 -14.2982,22.4476 -22.8792,32.5997 -11.3214,13.3943 -24.304,24.9906 -37.7836,36.0729 l 5.0872,15.6461 h 38.0002 l -30.7717,22.3112 11.7221,36.1205 -30.7115,-22.3854 -30.7799,22.3854 11.7961,-36.1384 -10.9723,-7.9555 c -24.4059,21.1282 -46.1006,44.263 -59.4706,74.9633 -0.3326,0.7635 -0.6569,1.5305 -0.9885,2.2944 h 33.183 l -30.6998,22.3272 11.749,36.2034 -29.8908,-21.7384 c -12.3685,29.4504 -24.59,58.9543 -37.9653,87.976 -19.1659,41.5857 -40.903,82.3144 -65.4102,121.0046 -0.4783,0.755 -0.9614,1.5123 -1.4437,2.2693 l 8.7437,26.9429 h 38.0225 l -30.7797,22.3853 11.7301,36.1452 -30.7116,-22.3854 -30.7799,22.3854 11.8042,-36.1632 -8.2936,-6.0317 c -15.4937,19.6129 -33.0656,37.5928 -53.5742,50.7657 -8.9234,5.7317 -18.5251,10.6006 -28.98,12.7452 -10.2261,2.0978 -20.8022,1.1899 -31.1709,1.2479 -2.8392,0.016 -11.2084,-1.5125 -13.1402,1.4564 -1.652,2.5385 -0.7331,7.3365 -0.7331,10.191 0,4.6188 -10e-5,9.2377 -10e-5,13.8566 h 906.8958 v -130.583 z m -614.323,-9.1794 -30.7457,-22.2924 -30.7458,22.2924 11.728,-36.1386 -30.6788,-22.2932 h 37.9016 l 11.7457,-36.1251 11.7458,36.1251 h 38.0002 l -30.6918,22.2532 z m 106.8946,91.6945 -30.7115,-22.3854 -30.7799,22.3854 11.8042,-36.1631 -30.755,-22.3673 h 38.0223 l 11.7235,-36.1251 11.7237,36.1251 h 38.0223 l -30.7797,22.3853 z M 841.3272,695.0378 853.0673,731.1454 822.3558,708.8283 791.5759,731.1454 803.39,695.02 772.625,672.7136 h 38.0223 l 11.7235,-36.1251 11.7237,36.1251 h 38.0223 z m 118.7334,127.802 -30.7798,-22.3171 -30.7117,22.3171 11.7222,-36.1206 -30.7717,-22.3112 h 38.0002 l 11.7458,-36.1251 11.7457,36.1251 h 38.0002 l -30.747,22.2933 z m -11.8043,-219.4533 11.8043,36.1632 -30.7798,-22.3854 -30.7117,22.3854 11.7302,-36.1453 -30.7797,-22.3854 h 38.0224 l 11.7236,-36.1249 11.7236,36.1249 h 38.0223 z m 118.6989,-55.5313 -30.7457,-22.3605 -30.7458,22.3605 11.741,-36.1785 -30.6918,-22.2532 h 38.0002 l 11.7458,-36.1251 11.7457,36.1251 h 37.9016 l -30.6788,22.2932 z m -11.7279,-219.4592 11.7279,36.0703 -30.7457,-22.2924 -30.7458,22.2924 11.741,-36.1104 -30.6918,-22.3214 h 38.0224 l 11.7236,-36.1251 11.7236,36.1251 h 37.9237 z m -30.6921,-205.6517 11.7236,-36.125 11.7236,36.125 h 37.9237 l -30.6788,22.2933 11.7279,36.1385 -30.7457,-22.2924 -30.7458,22.2924 11.741,-36.1785 -30.6918,-22.2533 z m 42.42,791.79 -30.7457,-22.3605 -30.7458,22.3605 11.749,-36.2033 -30.6998,-22.3271 h 38.0224 l 11.7236,-36.1251 11.7235,36.1251 h 37.9238 l -30.6869,22.3672 z m 106.9933,-91.6945 -30.7799,-22.3171 -30.7117,22.3171 11.7222,-36.1207 -30.7717,-22.3112 h 38.0002 l 11.7458,-36.1251 11.7457,36.1251 h 38.0001 l -30.7469,22.2932 z m 106.8946,91.6945 -30.7458,-22.3606 -30.7457,22.3606 11.736,-36.1632 -30.6869,-22.3672 h 38.0225 l 11.7236,-36.1251 11.7235,36.1251 h 37.9236 l -30.6868,22.3672 z"
       id="path4"
       inkscape:connector-curvature="0"
       style="fill:#3c3a6e" /><path
       d="m 599.6788,847.0078 c -2.0467,3.0092 -4.1336,6.0104 -6.258,8.9961 h 3.3386 z"
       id="path6"
       inkscape:connector-curvature="0"
       style="fill:#3c3a6e" /><path
       d="m 70.358,962.6022 h 319.4493 c -2.4183,-16.8961 -9.771,-32.1454 -23.6833,-43.3067 -16.2293,-13.0202 -35.3556,-14.0414 -55.2756,-14.0861 -34.1635,-0.0767 -68.327,-0.0904 -102.4905,-0.0602 l 3.0457,9.385 -12.8592,-9.3729 c -11.4122,0.0146 -22.8244,0.01 -34.2366,0.0421 -0.498,10e-4 -0.9969,6e-4 -1.4958,0 l -12.8014,9.3308 3.052,-9.4045 c -18.4858,-0.1611 -37.0119,0.144 -53.1172,10.6693 -7.8087,5.103 -14.6838,11.6271 -19.698,19.5266 -2.302,3.6268 -4.2008,7.503 -5.691,11.531 -0.7973,2.1548 -1.3632,8.8522 -4.1985,9.3376 v 6.408 z"
       id="path8"
       inkscape:connector-curvature="0"
       style="fill:#3c3a6e" /><polygon
       points="929.2656,780.5458 929.2654,780.5459 929.2656,780.5459 "
       id="polygon10"
       style="fill:#3c3a6e" /><path
       d="m 810.9849,488.3169 c -0.4574,0.3686 -0.9138,0.7376 -1.3703,1.1066 h 1.0105 z"
       id="path12"
       inkscape:connector-curvature="0"
       style="fill:#3c3a6e" /><polygon
       points="1017.2046,144.9977 1005.4636,181.1761 1036.2095,158.8838 1066.9552,181.1761 1055.2273,145.0376 1085.9061,122.7443 1047.9824,122.7443 1036.2588,86.6193 1024.5352,122.7443 986.5128,122.7443 "
       id="polygon14"
       style="fill:#ffffff" /><path
       d="m 948.2645,236.7321 30.747,-22.2933 h -34.1756 c -1.4265,10.4656 -2.8906,20.9271 -4.3478,31.3895 -0.5351,3.8417 -1.1304,7.6869 -1.753,11.5328 l 21.3255,15.5095 z"
       id="path16"
       inkscape:connector-curvature="0"
       style="fill:#ffffff" /><path
       d="m 1143.1534,178.3137 -11.7458,36.1251 h -38.0002 l 30.7717,22.3112 -11.7222,36.1205 30.7117,-22.3853 30.7799,22.3853 -11.7961,-36.1385 7.0149,-5.0861 c -0.2174,-0.9184 -0.4299,-1.8385 -0.6625,-2.7508 -1.2356,-4.847 -2.4778,-9.6677 -3.7761,-14.4563 h -9.8295 z"
       id="path18"
       inkscape:connector-curvature="0"
       style="fill:#ffffff" /><polygon
       points="1036.2588,269.9095 1024.5352,306.0346 986.5128,306.0346 1017.2046,328.356 1005.4636,364.4663 1036.2095,342.1739 1066.9552,364.4663 1055.2273,328.396 1085.9061,306.0346 1047.9824,306.0346 "
       id="polygon20"
       style="fill:#ffffff" /><path
       d="m 898.5691,456.1608 30.7117,-22.3171 30.7798,22.3171 -11.7961,-36.1385 30.747,-22.2933 h -38.0223 l -11.7236,-36.125 -11.7236,36.125 h -23.707 c -1.3398,2.4816 -2.7208,4.94 -4.1426,7.3758 l 20.5989,14.9354 z"
       id="path22"
       inkscape:connector-curvature="0"
       style="fill:#ffffff" /><path
       d="m 1143.1534,361.6039 -11.7238,36.125 h -38.0223 l 30.7717,22.3112 -11.7222,36.1206 30.7117,-22.3171 5.3481,3.8777 c 0.7141,-1.7216 1.417,-3.4471 2.0936,-5.1815 4.4906,-11.5108 8.0374,-23.0932 11.1639,-34.8109 h -6.8973 z"
       id="path24"
       inkscape:connector-curvature="0"
       style="fill:#ffffff" /><path
       d="m 791.5758,547.8552 30.7799,-22.3854 30.7115,22.3854 -11.7221,-36.1205 30.7717,-22.3112 h -38.0002 l -5.0872,-15.6461 c -3.6329,2.9867 -7.2947,5.9435 -10.9784,8.8792 -2.3641,1.8841 -4.7202,3.7698 -7.0662,5.6603 l -0.3598,1.1066 h -1.0105 c -5.8364,4.7179 -11.5977,9.4748 -17.215,14.3378 l 10.9723,7.9555 z"
       id="path26"
       inkscape:connector-curvature="0"
       style="fill:#ffffff" /><polygon
       points="1048.0045,489.4235 1036.2588,453.2984 1024.5129,489.4235 986.5128,489.4235 1017.2046,511.6767 1005.4636,547.8552 1036.2095,525.4947 1066.9552,547.8552 1055.2273,511.7167 1085.9061,489.4235 "
       id="polygon28"
       style="fill:#ffffff" /><path
       d="m 734.4237,603.3463 30.6998,-22.3272 h -33.183 c -5.3076,12.2291 -10.4982,24.5048 -15.6585,36.7919 l 29.8906,21.7387 z"
       id="path30"
       inkscape:connector-curvature="0"
       style="fill:#ffffff" /><polygon
       points="929.2656,544.8941 917.5419,581.019 879.5195,581.019 910.2993,603.4044 898.5691,639.5497 929.2808,617.1642 960.0606,639.5497 948.2563,603.3865 979.0115,581.019 940.9891,581.019 "
       id="polygon32"
       style="fill:#ffffff" /><polygon
       points="822.3708,636.5885 810.6473,672.7136 772.625,672.7136 803.39,695.02 791.5758,731.1454 822.3557,708.8282 853.0673,731.1454 841.3272,695.0378 872.1169,672.7136 834.0945,672.7136 "
       id="polygon34"
       style="fill:#ffffff" /><path
       d="m 1036.2588,636.5885 -11.7236,36.1251 h -38.0224 l 30.7098,22.2664 -11.7589,36.1655 30.7458,-22.2924 30.7457,22.2924 -7.0881,-21.8004 c -5.1826,-5.5169 -5.8828,-18.9991 -6.1763,-25.4729 -0.1689,-3.7281 -0.1315,-7.4482 0.056,-11.1585 h -5.7648 z"
       id="path36"
       inkscape:connector-curvature="0"
       style="fill:#ffffff" /><path
       d="m 1273.6422,708.9984 c -7.8229,-0.0494 -15.6473,-0.0765 -23.4731,-0.0933 l 30.6741,22.2404 z"
       id="path38"
       inkscape:connector-curvature="0"
       style="fill:#ffffff" /><path
       d="m 1250.0259,708.9048 c -3.3022,-0.007 -6.6041,-0.0167 -9.9069,-0.0207 -4.5066,-0.005 -9.0153,-0.0117 -13.5237,-0.0175 l -7.2438,22.2787 z"
       id="path40"
       inkscape:connector-curvature="0"
       style="fill:#ffffff" /><polygon
       points="727.1234,764.408 715.3776,728.283 703.6318,764.408 665.7303,764.408 696.4091,786.7012 684.6812,822.8398 715.4269,800.5474 746.1727,822.8398 734.4318,786.6613 765.1235,764.408 "
       id="polygon42"
       style="fill:#ffffff" /><path
       d="m 941.0113,764.408 -11.7457,-36.1251 -11.7458,36.1251 h -38.0002 l 30.7717,22.3112 -11.7222,36.1206 30.7117,-22.3171 30.7798,22.3171 -11.7961,-36.1385 30.747,-22.2933 z m -11.7457,16.1379 h -10e-5 z"
       id="path44"
       inkscape:connector-curvature="0"
       style="fill:#ffffff" /><polygon
       points="1154.8992,764.408 1143.1534,728.283 1131.4076,764.408 1093.4073,764.408 1124.1791,786.7192 1112.4569,822.8398 1143.1686,800.5228 1173.9485,822.8398 1162.1523,786.7012 1192.8993,764.408 "
       id="polygon46"
       style="fill:#ffffff" /><path
       d="m 208.3579,905.1493 c -3.2712,0.003 -6.5423,0.008 -9.8135,0.0121 l 12.8592,9.3729 z"
       id="path48"
       inkscape:connector-curvature="0"
       style="fill:#ffffff" /><path
       d="m 162.8121,905.2035 c -3.2397,-0.004 -6.4937,-0.0453 -9.7494,-0.0737 l -3.052,9.4045 z"
       id="path50"
       inkscape:connector-curvature="0"
       style="fill:#ffffff" /><path
       d="m 577.6879,914.5343 30.7799,-22.3854 30.7116,22.3854 -11.7301,-36.1452 30.7797,-22.3853 h -38.0225 l -8.7437,-26.9429 c -3.7951,5.956 -7.7144,11.9639 -11.7841,17.9468 l -2.9194,8.9961 h -3.3386 c -3.9307,5.5245 -7.9995,10.9899 -12.2224,16.3356 l 8.2936,6.0317 z"
       id="path52"
       inkscape:connector-curvature="0"
       style="fill:#ffffff" /><polygon
       points="834.0945,856.0038 822.3708,819.8788 810.6473,856.0038 772.625,856.0038 803.38,878.3712 791.5758,914.5343 822.3557,892.1489 853.0673,914.5343 841.3372,878.3891 872.1169,856.0038 "
       id="polygon54"
       style="fill:#ffffff" /><polygon
       points="1047.9823,856.0038 1036.2588,819.8788 1024.5352,856.0038 986.5128,856.0038 1017.2126,878.331 1005.4636,914.5343 1036.2095,892.1738 1066.9552,914.5343 1055.2192,878.3711 1085.9061,856.0038 "
       id="polygon56"
       style="fill:#ffffff" /><polygon
       points="1261.8702,856.0038 1250.1467,819.8788 1238.4231,856.0038 1200.4006,856.0038 1231.0875,878.3711 1219.3516,914.5343 1250.0973,892.1737 1280.8431,914.5343 1269.1071,878.3711 1299.7938,856.0038 "
       id="polygon58"
       style="fill:#ffffff" /><path
       d="m 1514.0107,741.2156 c -17.0033,-13.6453 -37.4691,-19.3516 -58.6375,-22.6949 -23.4684,-3.7066 -47.6464,-4.6995 -71.3396,-6.2188 -7.8453,-0.5029 -15.6915,-0.908 -23.538,-1.2729 v 120.9902 h 222.4688 c -7.0758,-15.1068 -16.302,-29.5486 -25.856,-42.8556 -12.3019,-17.1349 -26.5736,-34.6873 -43.0977,-47.948 z"
       id="path60"
       inkscape:connector-curvature="0"
       style="fill:#ffffff" /><path
       d="m 390.6994,973.1043 c -0.0951,-3.5574 -0.3996,-7.061 -0.892,-10.5019 H 70.358 h -1e-4 c 0,43.4948 0,86.9895 0,130.4844 h 320.5344 c 0.2584,-39.9894 0.875,-80.0519 -0.1929,-119.9825 z"
       id="path62"
       inkscape:connector-curvature="0"
       style="fill:#ffffff" /><path
       d="m 453.6,962.6024 c -1e-4,7.1151 -1e-4,14.2301 -2e-4,21.345 -2e-4,36.3798 -0.003,72.7595 -0.004,109.1393 h 1142.9507 c -1.2462,-6.5895 -4.0503,-12.9834 -6.9774,-18.8711 -9.4219,-18.9529 -21.7285,-36.4316 -32.0763,-54.8759 -5.4664,-9.7445 -11.1552,-20.2792 -12.8127,-31.4688 -1.4049,-9.4845 1.5347,-17.4666 6.0686,-25.2686 H 1360.4958 453.6 Z"
       id="path64"
       inkscape:connector-curvature="0"
       style="fill:#ffffff" /><path
       d="m 74.466,1601.1014 c 1.8606,5.0455 4.595,9.8702 7.9481,14.318 h 295.7468 c 11.6507,-15.8551 12.6869,-34.5692 12.682,-53.9863 -0.007,-25.5323 -0.009,-51.0646 -0.0137,-76.5968 H 70.3579 c 0,16.7444 0,33.489 0,50.2335 0,12.7335 0,25.4667 0,38.1998 0,5.8772 0,11.7539 0,17.6309 3.1075,0.6317 3.2308,7.8215 4.1081,10.2009 z"
       id="path66"
       inkscape:connector-curvature="0"
       style="fill:#ffffff" /><path
       d="m 453.5083,1570.6467 c -0.003,6.2588 -0.8541,13.1942 0.116,19.3798 0.6305,4.0192 4.1725,4.4814 7.555,5.1531 11.0413,2.1931 22.1131,4.238 33.1833,6.2787 22.7644,4.1963 45.5389,8.3271 68.2953,12.5692 2.5045,0.4669 5.0104,0.9279 7.5154,1.392 h 835.009 c 9.8828,-8.155 19.3285,-16.8453 28.1516,-26.1013 14.0356,-14.7245 30.7904,-32.7421 36.5684,-52.7583 3.2704,-11.3285 1.8635,-23.8439 1.751,-35.4769 -0.052,-5.4154 -0.088,-10.8311 -0.1311,-16.2466 H 453.5319 c -0.01,28.6033 -0.01,57.2069 -0.0236,85.8103 z"
       id="path68"
       inkscape:connector-curvature="0"
       style="fill:#ffffff" /><path
       d="M 390.7997,1223.6698 H 70.3579 c 0,30.3386 0,60.6772 0,91.0159 0,13.1892 0,26.3783 0,39.5676 h 320.4533 c -0.004,-43.528 -0.008,-87.0555 -0.0115,-130.5835 z"
       id="path70"
       inkscape:connector-curvature="0"
       style="fill:#ffffff" /><path
       d="m 453.5679,1354.2533 h 1099.8436 c 8.5857,-15.046 11.9617,-30.7449 6.8406,-49.0734 -6.1252,-21.923 -16.6991,-42.9773 -24.4465,-64.3965 -2.016,-5.574 -3.7905,-11.2915 -4.9512,-17.1136 H 453.5911 c -0.003,43.528 -0.0152,87.0555 -0.0232,130.5835 z"
       id="path72"
       inkscape:connector-curvature="0"
       style="fill:#ffffff" /><polygon
       points="70.3579,962.6024 70.358,962.6024 389.8073,962.6024 389.8073,962.6022 70.358,962.6022 70.3579,962.6022 "
       id="polygon74"
       style="fill:#b22134" /><path
       d="m 1360.4957,832.0192 v 130.583 H 453.6 c 0,10e-5 0,10e-5 0,2e-4 h 906.8958 190.2529 c 0.7877,-1.3552 1.6174,-2.7056 2.4871,-4.0568 11.6517,-18.1001 26.6945,-34.0513 37.3607,-52.7695 5.5326,-9.7094 7.7079,-18.8024 6.5483,-29.9827 -1.0371,-9.9962 -4.9055,-20.2032 -8.2936,-29.6169 -1.7181,-4.7743 -3.7035,-9.4964 -5.8867,-14.1573 z"
       id="path76"
       inkscape:connector-curvature="0"
       style="fill:#b22134" /><path
       d="m 390.7904,1119.7225 c -10e-4,-8.8729 0.0445,-17.7532 0.1019,-26.6357 H 70.3579 c 0,43.5277 0,87.0553 0,130.583 h 320.4418 c -0.003,-34.649 -0.005,-69.2981 -0.009,-103.9473 z"
       id="path78"
       inkscape:connector-curvature="0"
       style="fill:#b22134" /><path
       d="m 453.5911,1223.6698 h 1077.2633 c -1.0023,-5.0271 -1.5481,-10.1321 -1.3778,-15.2932 0.3466,-10.5059 6.3352,-19.3816 12.3923,-27.5264 12.9771,-17.4506 28.7679,-32.5974 41.8171,-49.9867 6.161,-8.2098 12.5018,-17.6943 13.4209,-28.1908 0.2817,-3.218 0.038,-6.4242 -0.5604,-9.5859 H 453.5959 c -7e-4,43.5276 -0.002,87.0553 -0.005,130.583 z"
       id="path80"
       inkscape:connector-curvature="0"
       style="fill:#b22134" /><path
       d="m 390.8165,1414.1963 c -0.002,-19.9808 -0.004,-39.9622 -0.005,-59.943 H 70.3579 c 0,35.785 0,71.5702 0,107.3551 0,7.7427 0,15.4854 0,23.2279 h 320.4713 c -0.004,-23.5466 -0.01,-47.0933 -0.0127,-70.64 z"
       id="path82"
       inkscape:connector-curvature="0"
       style="fill:#b22134" /><path
       d="m 453.5319,1484.8363 h 1017.9904 c -0.049,-6.1274 -0.1047,-12.2546 -0.1482,-18.3821 -0.1604,-22.4855 13.2576,-37.6362 28.4248,-52.6643 15.733,-15.5884 32.891,-30.3416 46.1478,-48.2017 2.7892,-3.7574 5.2911,-7.5256 7.4648,-11.335 H 453.5679 c -0.008,43.5277 -0.021,87.0554 -0.036,130.5831 z"
       id="path84"
       inkscape:connector-curvature="0"
       style="fill:#b22134" /><path
       d="m 113.0436,1638.0552 c 9.8326,3.415 19.8038,3.4705 30.087,3.4771 11.6263,0.01 23.2526,0.013 34.8791,0.015 48.4432,0.012 96.8864,-0.01 145.3297,0.011 20.0877,0.01 38.8982,-7.2844 52.1736,-22.7974 0.94,-1.0985 1.8188,-2.2134 2.6478,-3.3414 H 82.4141 c 7.7782,10.3176 18.9395,18.576 30.6295,22.6357 z"
       id="path86"
       inkscape:connector-curvature="0"
       style="fill:#b22134" /><path
       d="m 698.061,1639.1379 c 22.117,4.3041 44.3047,8.3455 66.4678,12.4086 10.5344,1.9316 21.4515,4.705 32.1302,5.4781 10.8256,0.7839 21.6307,1.2294 32.4453,2.292 46.918,4.6094 94.2144,7.6371 141.3221,9.3119 95.4319,3.3923 191.3375,9.0658 286.6816,0.8589 22.6234,-1.9474 45.8047,-4.6559 67.8292,-10.1932 21.4541,-5.3937 39.9674,-14.2406 58.105,-26.9896 7.583,-5.33 14.973,-10.9711 22.14,-16.8851 h -835.009 c 42.6277,7.8984 85.3377,15.4378 127.8878,23.7184 z"
       id="path88"
       inkscape:connector-curvature="0"
       style="fill:#b22134" /></g></svg>
