<?xml version="1.0" encoding="UTF-8" standalone="no"?>
<svg
   version="1.1"
   id="Layer_1"
   x="0px"
   y="0px"
   viewBox="0 0 431.88359 500.00001"
   enable-background="new 0 0 1423.911 1656.444"
   xml:space="preserve"
   sodipodi:docname="trump.svg"
   width="431.88361"
   height="500"
   inkscape:version="1.4 (86a8ad7, 2024-10-11)"
   inkscape:export-filename="trump.svg"
   inkscape:export-xdpi="96"
   inkscape:export-ydpi="96"
   xmlns:inkscape="http://www.inkscape.org/namespaces/inkscape"
   xmlns:sodipodi="http://sodipodi.sourceforge.net/DTD/sodipodi-0.dtd"
   xmlns="http://www.w3.org/2000/svg"
   xmlns:svg="http://www.w3.org/2000/svg"
   xmlns:rdf="http://www.w3.org/1999/02/22-rdf-syntax-ns#"
   xmlns:cc="http://creativecommons.org/ns#"
   xmlns:dc="http://purl.org/dc/elements/1.1/"><metadata
     id="metadata3883"><rdf:RDF><cc:Work
         rdf:about=""><dc:format>image/svg+xml</dc:format><dc:type
           rdf:resource="http://purl.org/dc/dcmitype/StillImage" /><cc:license
           rdf:resource="http://creativecommons.org/publicdomain/zero/1.0/" /></cc:Work><cc:License
         rdf:about="http://creativecommons.org/publicdomain/zero/1.0/"><cc:permits
           rdf:resource="http://creativecommons.org/ns#Reproduction" /><cc:permits
           rdf:resource="http://creativecommons.org/ns#Distribution" /><cc:permits
           rdf:resource="http://creativecommons.org/ns#DerivativeWorks" /></cc:License></rdf:RDF></metadata><defs
     id="defs3881" /><sodipodi:namedview
     pagecolor="#ffffff"
     bordercolor="#666666"
     borderopacity="1"
     objecttolerance="10"
     gridtolerance="10"
     guidetolerance="10"
     inkscape:pageopacity="0"
     inkscape:pageshadow="2"
     inkscape:window-width="1278"
     inkscape:window-height="1341"
     id="namedview3879"
     showgrid="false"
     fit-margin-top="0"
     fit-margin-left="0"
     fit-margin-right="0"
     fit-margin-bottom="0"
     inkscape:zoom="3.592"
     inkscape:cx="325.30624"
     inkscape:cy="9.8830735"
     inkscape:window-x="0"
     inkscape:window-y="0"
     inkscape:window-maximized="0"
     inkscape:current-layer="Layer_1"
     inkscape:showpageshadow="2"
     inkscape:pagecheckerboard="0"
     inkscape:deskcolor="#d1d1d1"><inkscape:page
       x="0"
       y="0"
       width="431.88358"
       height="500"
       id="page2"
       margin="0"
       bleed="0" /></sodipodi:namedview><path
     id="path4190"
     stroke-miterlimit="10"
     d="M 1.3946827,499.22119 C -5.4682392,469.74987 46.755388,285.93883 99.964685,262.09181 L 97.740388,259.213 C 111.76249,248.894 120.75407,241.499 132.5469,228.59371 l 5.49563,1.57009 2.87881,-6.01931 c -3.04516,0.94362 -6.58659,1.9701 -12.56198,3.40218 -4.86884,-50.66973 2.11869,-52.10992 7.03302,-85.08247 4.20778,-28.23238 7.45669,-51.614908 15.99656,-70.271589 28.61586,-62.5136489 83.794,-77.6304572 140.56871,-69.3211192 53.08126,7.7688402 87.47687,32.9211532 137.29769,75.1946342 -14.2112,-2.271026 -28.34296,-4.647971 -46.63297,-1.480373 1.36074,5.986288 3.15389,13.125533 7.44018,26.913687 6.43768,2.27445 9.30871,5.79158 4.97227,12.0383 -1.97695,2.84766 -3.22835,5.8704 -4.18723,7.5894 -2.52523,4.52617 -1.21744,9.53302 2.35545,15.96385 7.14454,12.85949 15.31307,27.74639 19.36603,38.47037 2.94672,7.79657 2.61588,14.75668 -7.5894,16.48721 -5.67196,0.96168 -11.52865,-0.16137 -14.39345,3.1405 6.11806,2.30311 8.18006,7.64797 10.46822,12.82335 3.6271,1.6757 6.21775,6.81775 2.73862,8.82118 -3.79345,2.18442 -6.76759,8.23176 -12.97662,11.32989 3.46978,2.54424 10.16198,10.16292 1.34018,18.58098 -1.91931,0.26573 -3.83831,-0.0551 -5.75762,-0.52336 -1.73084,-0.13739 -3.22212,3.65046 -1.02835,7.60809 5.03084,9.07507 6.55887,17.92148 2.11028,24.34608 -2.8676,4.14112 -11.40498,12.01931 -17.83083,9.39501 -7.98815,9.16822 -20.12085,9.35607 -32.18937,9.68317 -17.43862,4.90093 -37.68564,17.34765 -50.247,18.84266 0,0 0.25576,3.63894 1.30841,3.40218 15.76852,-3.54579 138.37433,174.76868 127.42481,177.72289 z"
     inkscape:connector-curvature="0"
     style="fill:none;stroke:#000000;stroke-width:1.55763;stroke-miterlimit:10" /><polygon
     points="1356.931,1628.222 1356.932,1628.222 26.217,1628.222 "
     id="polygon3770"
     style="fill:none"
     transform="matrix(0.31152619,0,0,0.31152619,-6.7725994,-8.0126102)" /><path
     d="M 381.51816,40.118315 C 372.8934,34.134625 364.38721,28.796338 355.75946,24.105117 V 40.118315 Z"
     id="path3772"
     inkscape:connector-curvature="0"
     style="fill:#b62022;fill-opacity:1;stroke-width:0.332169" /><path
     d="m 355.75946,115.81095 h 39.09062 c 0.0617,-0.0927 0.12181,-0.18586 0.18474,-0.27817 4.33644,-6.36011 1.46541,-9.94108 -4.97227,-12.25681 -4.07819,-13.357121 -5.89906,-20.584721 -7.23832,-26.5049 h -27.06477 z"
     id="path3774"
     inkscape:connector-curvature="0"
     style="fill:#b62022;fill-opacity:1;stroke-width:0.314341" /><path
     d="m 429.25534,78.066126 c -0.23676,-0.200934 -0.47102,-0.398754 -0.70716,-0.599065 h -3.05233 c 1.25451,0.198131 2.50685,0.398754 3.75949,0.599065 z"
     id="path3776"
     inkscape:connector-curvature="0"
     style="fill:#b22134;stroke-width:0.311526" /><path
     d="m 355.75946,192.49873 h 54.05727 c 5.37103,-2.89127 5.13209,-8.6408 2.75234,-14.93737 -2.52617,-6.68442 -6.65171,-14.98628 -11.13146,-23.40652 h -45.67815 z"
     id="path3778"
     inkscape:connector-curvature="0"
     style="fill:#b62022;stroke-width:0.311526;fill-opacity:1" /><path
     d="m 355.75946,269.18682 h 34.2386 c -0.42461,-4.20249 -2.07352,-8.75015 -4.62741,-13.35762 -2.19377,-3.95763 -0.70249,-7.74548 1.02835,-7.60809 1.91931,0.46822 3.83831,0.78909 5.75762,0.52336 8.13987,-7.76728 3.07165,-14.85388 -0.48629,-17.90185 h -35.91087 z"
     id="path3780"
     inkscape:connector-curvature="0"
     style="fill:#b62022;stroke-width:0.311526;fill-opacity:1" /><path
     d="m 288.52214,321.4983 c -1.05265,0.23676 -1.30841,-3.40218 -1.30841,-3.40218 7.57414,-0.90156 17.9436,-5.78473 28.80589,-10.59469 H 59.745407 C 53.140741,319.1064 46.831089,332.1472 40.959443,345.84532 H 315.36075 C 302.42524,330.44658 292.34083,320.63973 288.52214,321.4983 Z"
     id="path3782"
     inkscape:connector-curvature="0"
     style="fill:#b62022;stroke-width:0.311526;fill-opacity:1" /><path
     d="M 345.19748,384.18952 H 26.161949 c -4.530213,13.02304 -8.584727,26.00247 -12.052948,38.34389 H 372.37533 c -8.74578,-12.80155 -18.0492,-25.94453 -27.17785,-38.34389 z"
     id="path3784"
     inkscape:connector-curvature="0"
     style="fill:#b62022;stroke-width:0.311526;fill-opacity:1" /><path
     d="M 397.48871,460.8773 H 4.7924989 c -3.5654173,17.99375 -4.9027992,31.88065 -3.3978162,38.34389 H 415.94726 c 3.1866,-0.86044 -4.94361,-16.57943 -18.45855,-38.34389 z"
     id="path3786"
     inkscape:connector-curvature="0"
     style="fill:#b62022;stroke-width:0.311526;fill-opacity:1" /><rect
     x="229.13466"
     y="215.7283"
     width="0"
     height="0"
     id="rect3788"
     style="fill:#3c3a6e;stroke-width:0.311526" /><rect
     x="291.93988"
     y="215.7283"
     width="0"
     height="0"
     id="rect3790"
     style="fill:#3c3a6e;stroke-width:0.311526" /><path
     d="m 195.34528,19.365557 c -1.58722,1.021495 -3.15233,2.093145 -4.69781,3.208409 h 3.65638 z"
     id="path3792"
     inkscape:connector-curvature="0"
     style="fill:#578de6;stroke-width:0.311526;fill-opacity:1" /><path
     d="m 129.36808,190.61493 -2.35638,-1.70841 c -0.19751,2.96729 -0.30467,6.20654 -0.30125,9.83457 z"
     id="path3794"
     inkscape:connector-curvature="0"
     style="fill:#578de6;stroke-width:0.311526;fill-opacity:1" /><path
     d="m 134.34752,229.10804 -1.80062,-0.51433 c -3.13925,3.43551 -6.07975,6.47819 -8.96978,9.29189 h 7.9218 z"
     id="path3796"
     inkscape:connector-curvature="0"
     style="fill:#578de6;stroke-width:0.311526;fill-opacity:1" /><path
     d="M 355.75946,230.84262 V 192.49873 154.15484 115.81095 77.467061 39.123172 24.105117 C 336.21275,13.476778 316.00218,6.3904917 291.95765,2.8714918 258.90504,-1.9658869 226.39603,1.1415869 199.35182,16.912912 l 1.83738,5.661365 h 11.16479 l -9.03582,6.551396 3.44205,10.606221 -9.01806,-6.553265 -9.03799,6.553265 3.46386,-10.611517 -5.20062,-3.770713 c -6.7676,5.342986 -13.0841,11.654195 -18.85481,19.024593 l 1.66635,5.124917 h 11.15824 l -9.01214,6.534262 3.44766,10.623355 -9.02802,-6.565726 -9.02803,6.565726 3.44392,-10.611517 -0.52866,-0.384112 c -3.17196,5.098126 -6.1271,10.600614 -8.84205,16.531761 -7.01339,15.321792 -10.45793,33.833617 -13.79625,55.598387 l 0.79751,2.45327 h 11.15824 l -9.03581,6.5514 3.44205,10.60622 -8.38753,-6.1137 c -0.0583,0.39221 -0.1162,0.78162 -0.17508,1.1757 -2.87071,19.26042 -6.44828,27.76196 -7.95762,41.60058 h 4.06417 l 3.44236,-10.60778 3.44236,10.60778 h 11.16479 l -9.0408,6.55514 3.44735,10.60248 -9.01806,-6.55327 -8.21526,5.95638 c 0.0801,7.19688 0.57788,15.89251 1.6377,26.92085 5.97538,-1.43209 9.51681,-2.45856 12.56198,-3.40218 l -2.87882,6.01931 -2.38566,-0.68162 2.7271,8.40342 h 11.16478 l -9.03799,6.5732 3.44423,10.6137 -9.01806,-6.5732 -9.038,6.5732 3.46604,-10.61868 -7.18223,-5.22336 c -7.46822,7.11931 -14.75482,12.85388 -24.442349,19.98316 l 2.224297,2.87881 c -3.660745,1.6405 -7.316505,4.04237 -10.9489,7.0947 H 355.76009 v -38.3442 z m -23.38876,-29.61991 -9.02803,-6.54579 -9.02803,6.54579 3.44891,-10.60778 -9.0137,-6.54984 h 11.16479 l 3.44236,-10.60778 3.44268,10.60778 h 11.13581 l -9.0137,6.54984 z M 214.52751,103.31969 h 11.16478 l 3.44237,-10.607783 3.44236,10.607783 h 11.16479 l -9.02834,6.54609 3.46386,10.61152 -9.038,-6.55326 -9.01806,6.55326 3.44205,-10.60622 z m 31.4171,-26.924902 h 11.16479 l 3.44236,-10.607778 3.44237,10.607778 h 11.13581 l -9.0084,6.566037 3.44361,10.591579 -9.02803,-6.545788 -9.02803,6.545788 3.44766,-10.603417 z m 23.62085,71.007102 -9.02803,-6.56604 -9.02803,6.56604 3.44766,-10.62336 -9.01214,-6.53426 h 11.15825 l 3.4489,-10.60747 3.44891,10.60747 h 11.12927 l -9.0084,6.5461 z m -71.81893,-27.76509 3.4489,10.60747 h 11.15825 l -9.03582,6.5514 3.44205,10.60622 -9.01806,-6.57321 -9.038,6.57321 3.46386,-10.61152 -9.02834,-6.5461 h 11.15825 z m 31.38813,26.89562 3.44236,10.60778 h 11.16479 l -9.03083,6.5679 3.46604,10.61868 -9.038,-6.5732 -9.01806,6.5732 3.44423,-10.61338 -9.038,-6.5732 h 11.16479 z m 0,53.84979 3.4489,10.60747 h 11.15825 l -9.02834,6.5461 3.46386,10.61151 -9.038,-6.55326 -9.01806,6.55326 3.44205,-10.60622 -9.03581,-6.55139 h 11.15824 z m 25.82739,-9.77912 -9.01744,-6.53831 h 11.16479 l 3.44236,-10.60778 3.44237,10.60778 h 11.13581 l -9.0137,6.54984 3.44891,10.60778 -9.02803,-6.54579 -9.02803,6.54579 z m 46.02052,37.5442 -9.038,-6.55295 -9.01806,6.55295 3.44205,-10.60622 -9.03582,-6.55139 h 11.15825 l 3.44891,-10.60747 3.4489,10.60747 h 11.15825 l -9.02834,6.5461 z m 5.56448,-71.00709 -9.03084,6.5679 3.46604,10.61868 -9.03799,-6.5732 -9.01806,6.5732 3.44423,-10.61338 -9.038,-6.5732 h 11.16479 l 3.44236,-10.60778 3.44237,10.60778 z m 25.82365,-9.73831 -9.02803,-6.56604 -9.02803,6.56604 3.44361,-10.61152 -9.0084,-6.5461 h 11.15824 l 3.44891,-10.60747 3.44891,10.60747 h 11.12927 l -9.0084,6.5461 z m -31.38813,-26.92459 -9.038,-6.55326 -9.01806,6.55326 3.44205,-10.60622 -9.03582,-6.55139 h 11.16479 l 3.44237,-10.607783 3.44236,10.607783 h 11.16479 l -9.02834,6.54609 z m 31.38813,-26.924896 -9.02803,-6.545788 -9.02803,6.545788 3.44361,-10.591579 -9.0084,-6.566037 h 11.16479 l 3.44236,-10.607778 3.44268,10.607778 h 11.13581 l -9.0084,6.566037 z m -9.0137,-81.585905 3.44268,10.607778 h 11.13581 l -9.0084,6.5461 3.44392,10.611517 -9.02803,-6.545789 -9.02803,6.545789 3.44361,-10.611517 -9.0084,-6.5461 h 11.16479 z m -27.9682,37.532364 h 11.15825 l -9.02834,6.5461 3.46386,10.611516 -9.038,-6.573202 -9.01806,6.573202 3.44205,-10.60622 -9.03582,-6.551396 h 11.15825 l 3.44891,-10.607779 z m -34.83704,-37.532364 3.44237,10.607778 h 11.13581 l -9.0084,6.5461 3.44361,10.611517 -9.02803,-6.545789 -9.02803,6.545789 3.44766,-10.623355 -9.01214,-6.534262 h 11.16479 z m -31.4171,26.924897 3.4489,10.607778 h 11.15825 l -9.02834,6.5461 3.46386,10.611517 -9.038,-6.573203 -9.01806,6.573203 3.44205,-10.606221 -9.03581,-6.551396 h 11.15824 z m -45.99529,37.503392 h 11.16479 l 3.44237,-10.607778 3.44236,10.607778 h 11.16479 l -9.03582,6.571333 3.44205,10.586283 -9.01806,-6.553265 -9.038,6.553265 3.46386,-10.591579 z m -31.38813,26.924902 h 11.13582 l 3.44236,-10.607783 3.44236,10.607783 h 11.16479 l -9.01214,6.53426 3.44766,10.62335 -9.02803,-6.54579 -9.02803,6.54579 3.44393,-10.61152 z m 14.57818,43.21273 3.44236,10.60778 h 11.16479 l -9.01463,6.55606 3.44984,10.63052 -9.02803,-6.56572 -9.02803,6.56572 3.4461,-10.61868 -9.01089,-6.5679 h 11.13581 z m 16.80995,37.53236 h 11.16479 l 3.44237,-10.60778 3.44236,10.60778 h 11.16479 l -9.04081,6.55514 3.44735,10.60248 -9.01806,-6.55327 -9.03799,6.55327 3.46915,-10.60778 z m -7.76728,44.08251 -9.02803,-6.54578 -9.02803,6.54578 3.44393,-10.61151 -9.00841,-6.5461 h 11.12928 l 3.4489,-10.60747 3.44891,10.60747 h 11.15824 l -9.01214,6.53426 z m 31.38813,26.9249 -9.01806,-6.5732 -9.03799,6.5732 3.46604,-10.61868 -9.03084,-6.56791 h 11.16479 l 3.44237,-10.60746 3.44236,10.60746 h 11.16479 l -9.038,6.57321 z m 62.80524,0 -9.02803,-6.56572 -9.02803,6.56572 3.44984,-10.63052 -9.01463,-6.55607 h 11.16479 l 3.44236,-10.60746 3.44237,10.60746 h 11.13581 l -9.01089,6.56791 z m 62.80524,0 -9.02803,-6.56572 -9.02803,6.56572 3.4461,-10.61868 -9.01058,-6.56791 h 11.16479 l 3.44236,-10.60746 3.44268,10.60746 h 11.13581 l -9.01058,6.56791 z"
     id="path3798"
     inkscape:connector-curvature="0"
     style="fill:#578de6;stroke-width:0.311526;fill-opacity:1" /><path
     d="m 337.46073,299.25346 c 12.06852,-0.3271 24.20122,-0.51495 32.18937,-9.68317 6.42585,2.6243 14.96323,-5.25389 17.83083,-9.39501 2.19003,-3.16292 2.92897,-6.91339 2.51713,-10.98846 H 355.75946 89.015785 c -10.072576,8.46448 -19.963533,21.9626 -29.270066,38.31492 H 316.01994 c 7.15201,-3.16729 14.51743,-6.30249 21.44079,-8.24828 z"
     id="path3800"
     inkscape:connector-curvature="0"
     style="fill:#ffffff;stroke-width:0.311526" /><path
     d="M 14.109001,422.53341 C 10.211185,436.40318 7.053556,449.46609 4.7921874,460.8773 H 397.48871 c -7.15514,-11.52273 -15.81806,-24.7383 -25.11338,-38.34389 z"
     id="path3802"
     inkscape:connector-curvature="0"
     style="fill:#ffffff;stroke-width:0.311526" /><path
     d="m 404.97967,194.04857 c 1.96323,-0.33302 3.55762,-0.86106 4.83706,-1.54984 h -54.05727 v 38.34389 h 35.91087 c -0.29813,-0.25545 -0.58567,-0.48255 -0.85389,-0.67913 6.20903,-3.09813 9.18317,-9.14547 12.97662,-11.32989 3.47913,-2.00343 0.88848,-7.14548 -2.73862,-8.82118 -2.28816,-5.17538 -4.35016,-10.52024 -10.46822,-12.82335 2.8648,-3.30187 8.72149,-2.17882 14.39345,-3.1405 z"
     id="path3804"
     inkscape:connector-curvature="0"
     style="fill:#ffffff;stroke-width:0.311526" /><path
     d="M 315.36106,345.84532 H 40.959755 c -5.330213,12.43519 -10.298433,25.40994 -14.797806,38.34389 H 345.19717 c -10.55638,-14.33862 -20.88005,-27.68222 -29.83611,-38.34389 z"
     id="path3806"
     inkscape:connector-curvature="0"
     style="fill:#ffffff;stroke-width:0.311526" /><path
     d="m 379.91738,39.123172 h -24.15792 v 38.343889 h 27.06477 c -0.0682,-0.296573 -0.13582,-0.590654 -0.20186,-0.881308 16.67786,-2.88847 29.89779,-1.166354 42.87379,0.881308 h 3.05233 C 410.92545,62.527823 395.22111,49.740919 379.91738,39.123172 Z"
     id="path3808"
     inkscape:connector-curvature="0"
     style="fill:#b62022;stroke-width:0.311526;fill-opacity:1" /><path
     d="m 393.20304,139.09099 c -3.57289,-6.43083 -4.88068,-11.43768 -2.35545,-15.96385 0.92835,-1.66417 2.13271,-4.54984 4.00249,-7.31619 h -39.09062 v 38.34389 h 45.67815 c -2.70685,-5.08847 -5.54329,-10.21993 -8.23457,-15.06385 z"
     id="path3810"
     inkscape:connector-curvature="0"
     style="fill:#ffffff;stroke-width:0.311526" /><path
     d="m 188.70417,39.731894 9.03799,-6.553265 9.01806,6.553265 -3.44205,-10.606221 9.03582,-6.551396 H 201.1892 l -1.83738,-5.661365 c -1.34891,0.786603 -2.68536,1.602491 -4.00654,2.452957 l -1.04112,3.208408 h -3.65638 c -1.2405,0.895327 -2.46854,1.818379 -3.68068,2.775387 l 5.20061,3.770713 z"
     id="path3812"
     inkscape:connector-curvature="0"
     style="fill:#ffffff;stroke-width:0.311526" /><polygon
     points="858.112,64.133 847.062,98.184 811.223,98.184 840.152,119.159 829.085,153.26 858.066,132.248 887.046,153.26 875.991,119.197 904.908,98.184 869.162,98.184 "
     id="polygon3814"
     style="fill:#ffffff"
     transform="matrix(0.31152619,0,0,0.31152619,-6.7725994,-8.0126102)" /><polygon
     points="1059.717,64.133 1048.667,98.184 1012.828,98.184 1041.745,119.197 1030.69,153.26 1059.67,132.248 1088.651,153.26 1077.596,119.197 1106.513,98.184 1070.767,98.184 "
     id="polygon3816"
     style="fill:#ffffff"
     transform="matrix(0.31152619,0,0,0.31152619,-6.7725994,-8.0126102)" /><path
     d="m 166.34406,60.090753 9.02803,6.565726 -3.44766,-10.623354 9.01214,-6.534262 h -11.15793 l -1.66636,-5.124918 c -2.27227,2.902178 -4.46074,5.967285 -6.55793,9.20373 -0.44517,0.686915 -0.8863,1.380684 -1.32305,2.082864 l 0.52866,0.384112 -3.44393,10.611517 z"
     id="path3818"
     inkscape:connector-curvature="0"
     style="fill:#ffffff;stroke-width:0.311526" /><polygon
     points="757.263,150.562 746.192,184.612 710.374,184.612 739.379,205.642 728.33,239.688 757.278,218.589 786.29,239.688 775.171,205.625 804.152,184.612 768.334,184.612 "
     id="polygon3820"
     style="fill:#ffffff"
     transform="matrix(0.31152619,0,0,0.31152619,-6.7725994,-8.0126102)" /><polygon
     points="958.868,150.562 947.797,184.612 911.979,184.612 940.983,205.642 929.934,239.688 958.882,218.589 987.895,239.688 976.776,205.625 1005.757,184.612 969.939,184.612 "
     id="polygon3822"
     style="fill:#ffffff"
     transform="matrix(0.31152619,0,0,0.31152619,-6.7725994,-8.0126102)" /><polygon
     points="656.507,236.897 645.457,270.948 609.618,270.948 638.599,292.025 627.481,326.024 656.493,304.988 685.441,326.024 674.392,292.042 703.396,270.948 667.558,270.948 "
     id="polygon3824"
     style="fill:#ffffff"
     transform="matrix(0.31152619,0,0,0.31152619,-6.7725994,-8.0126102)" /><polygon
     points="858.112,236.897 847.062,270.948 811.223,270.948 840.152,291.987 829.085,326.024 858.066,305.012 887.046,326.024 875.991,292.025 904.908,270.948 869.162,270.948 "
     id="polygon3826"
     style="fill:#ffffff"
     transform="matrix(0.31152619,0,0,0.31152619,-6.7725994,-8.0126102)" /><polygon
     points="1059.717,236.897 1048.667,270.948 1012.828,270.948 1041.745,292.025 1030.69,326.024 1059.67,305.012 1088.651,326.024 1077.596,292.025 1106.513,270.948 1070.767,270.948 "
     id="polygon3828"
     style="fill:#ffffff"
     transform="matrix(0.31152619,0,0,0.31152619,-6.7725994,-8.0126102)" /><polygon
     points="555.658,323.326 544.608,357.377 508.862,357.377 537.779,378.39 526.725,412.453 555.705,391.441 584.685,412.453 573.618,378.352 602.547,357.377 566.709,357.377 "
     id="polygon3830"
     style="fill:#ffffff"
     transform="matrix(0.31152619,0,0,0.31152619,-6.7725994,-8.0126102)" /><polygon
     points="757.263,323.326 746.213,357.377 710.374,357.377 739.379,378.406 728.33,412.453 757.278,391.417 786.29,412.453 775.171,378.39 804.152,357.377 768.314,357.377 "
     id="polygon3832"
     style="fill:#ffffff"
     transform="matrix(0.31152619,0,0,0.31152619,-6.7725994,-8.0126102)" /><polygon
     points="958.868,323.326 947.818,357.377 911.979,357.377 940.983,378.406 929.934,412.453 958.882,391.417 987.895,412.453 976.776,378.39 1005.757,357.377 969.918,357.377 "
     id="polygon3834"
     style="fill:#ffffff"
     transform="matrix(0.31152619,0,0,0.31152619,-6.7725994,-8.0126102)" /><path
     d="m 140.51293,136.79567 9.03582,-6.5514 H 138.39051 L 137.593,127.791 c -0.12461,0.81309 -0.24953,1.63084 -0.37414,2.45327 -0.1729,1.13987 -0.3458,2.28909 -0.51901,3.44641 -0.37321,2.4919 -0.74922,5.0243 -1.13239,7.59751 l 8.38753,6.1137 z"
     id="path3836"
     inkscape:connector-curvature="0"
     style="fill:#ffffff;stroke-width:0.311526" /><polygon
     points="656.507,409.755 645.436,443.805 609.618,443.805 638.599,464.818 627.481,498.881 656.493,477.781 685.441,498.881 674.392,464.835 703.396,443.805 667.578,443.805 "
     id="polygon3838"
     style="fill:#ffffff"
     transform="matrix(0.31152619,0,0,0.31152619,-6.7725994,-8.0126102)" /><polygon
     points="858.112,409.755 847.041,443.805 811.223,443.805 840.152,464.781 829.085,498.881 858.066,477.805 887.046,498.881 875.991,464.818 904.908,443.805 869.183,443.805 "
     id="polygon3840"
     style="fill:#ffffff"
     transform="matrix(0.31152619,0,0,0.31152619,-6.7725994,-8.0126102)" /><polygon
     points="1059.717,409.755 1048.646,443.805 1012.828,443.805 1041.745,464.818 1030.69,498.881 1059.67,477.805 1088.651,498.881 1077.596,464.818 1106.513,443.805 1070.788,443.805 "
     id="polygon3842"
     style="fill:#ffffff"
     transform="matrix(0.31152619,0,0,0.31152619,-6.7725994,-8.0126102)" /><polygon
     points="555.658,496.09 544.608,530.141 508.862,530.141 537.787,551.224 526.725,585.31 555.705,564.234 584.685,585.31 573.611,551.186 602.547,530.141 566.709,530.141 "
     id="polygon3844"
     style="fill:#ffffff"
     transform="matrix(0.31152619,0,0,0.31152619,-6.7725994,-8.0126102)" /><polygon
     points="757.263,496.09 746.213,530.141 710.374,530.141 739.386,551.24 728.33,585.31 757.278,564.21 786.29,585.31 775.164,551.224 804.152,530.141 768.314,530.141 "
     id="polygon3846"
     style="fill:#ffffff"
     transform="matrix(0.31152619,0,0,0.31152619,-6.7725994,-8.0126102)" /><polygon
     points="958.868,496.09 947.818,530.141 911.979,530.141 940.991,551.24 929.934,585.31 958.882,564.21 987.895,585.31 976.768,551.224 1005.757,530.141 969.918,530.141 "
     id="polygon3848"
     style="fill:#ffffff"
     transform="matrix(0.31152619,0,0,0.31152619,-6.7725994,-8.0126102)" /><path
     d="m 126.72167,200.62583 8.21526,-5.95639 9.01806,6.55327 -3.44735,-10.60248 9.0408,-6.55514 h -11.16479 l -3.44236,-10.60778 -3.44237,10.60778 h -4.06417 c -0.16791,1.5405 -0.31028,3.14673 -0.42336,4.84143 l 2.35638,1.70841 -2.65763,8.12616 c 9.4e-4,0.61682 0.005,1.24455 0.0115,1.88474 z"
     id="path3850"
     inkscape:connector-curvature="0"
     style="fill:#ffffff;stroke-width:0.311526" /><polygon
     points="656.507,582.519 645.457,616.569 609.618,616.569 638.616,637.595 627.481,671.646 656.493,650.61 685.441,671.646 674.375,637.612 703.396,616.569 667.558,616.569 "
     id="polygon3852"
     style="fill:#ffffff"
     transform="matrix(0.31152619,0,0,0.31152619,-6.7725994,-8.0126102)" /><polygon
     points="858.112,582.519 847.062,616.569 811.223,616.569 840.169,637.557 829.085,671.646 858.066,650.633 887.046,671.646 875.974,637.595 904.908,616.569 869.162,616.569 "
     id="polygon3854"
     style="fill:#ffffff"
     transform="matrix(0.31152619,0,0,0.31152619,-6.7725994,-8.0126102)" /><polygon
     points="1059.717,582.519 1048.667,616.569 1012.828,616.569 1041.762,637.595 1030.69,671.646 1059.67,650.633 1088.651,671.646 1077.579,637.595 1106.513,616.569 1070.767,616.569 "
     id="polygon3856"
     style="fill:#ffffff"
     transform="matrix(0.31152619,0,0,0.31152619,-6.7725994,-8.0126102)" /><polygon
     points="555.658,668.948 544.587,702.998 508.862,702.998 537.779,724.011 526.725,758.074 555.705,737.062 584.685,758.074 573.618,723.973 602.547,702.998 566.73,702.998 "
     id="polygon3858"
     style="fill:#ffffff"
     transform="matrix(0.31152619,0,0,0.31152619,-6.7725994,-8.0126102)" /><path
     d="m 220.12127,228.14729 9.01806,-6.55326 9.038,6.55326 -3.46386,-10.61151 9.02834,-6.5461 h -11.15825 l -3.4489,-10.60747 -3.44891,10.60747 h -11.15824 l 9.03581,6.55139 z m 9.01339,-12.41899 z"
     id="path3860"
     inkscape:connector-curvature="0"
     style="fill:#ffffff;stroke-width:0.311526" /><path
     d="m 282.9262,228.14729 9.01806,-6.55295 9.03799,6.55295 -3.46386,-10.61151 9.02835,-6.5461 h -11.15825 l -3.44891,-10.60747 -3.4489,10.60747 h -11.15825 l 9.03582,6.55139 z m 9.0137,-12.41899 z"
     id="path3862"
     inkscape:connector-curvature="0"
     style="fill:#ffffff;stroke-width:0.311526" /><path
     d="m 125.89893,255.07219 9.038,-6.5732 9.01806,6.5732 -3.44424,-10.6137 9.038,-6.5732 h -11.16479 l -2.7271,-8.40342 -1.30934,-0.37414 -2.8486,8.77725 h -7.9218 c -0.46573,0.45327 -0.93053,0.90249 -1.39439,1.34455 l 7.18224,5.22336 z"
     id="path3864"
     inkscape:connector-curvature="0"
     style="fill:#ffffff;stroke-width:0.311526" /><polygon
     points="656.507,755.283 645.457,789.334 609.618,789.334 638.607,810.417 627.481,844.503 656.493,823.403 685.441,844.503 674.384,810.433 703.396,789.334 667.558,789.334 "
     id="polygon3866"
     style="fill:#ffffff"
     transform="matrix(0.31152619,0,0,0.31152619,-6.7725994,-8.0126102)" /><polygon
     points="858.112,755.283 847.062,789.334 811.223,789.334 840.16,810.379 829.085,844.503 858.066,823.426 887.046,844.503 875.984,810.417 904.908,789.334 869.162,789.334 "
     id="polygon3868"
     style="fill:#ffffff"
     transform="matrix(0.31152619,0,0,0.31152619,-6.7725994,-8.0126102)" /><polygon
     points="1059.717,755.283 1048.667,789.334 1012.828,789.334 1041.752,810.417 1030.69,844.503 1059.67,823.426 1088.651,844.503 1077.589,810.417 1106.513,789.334 1070.767,789.334 "
     id="polygon3870"
     style="fill:#ffffff"
     transform="matrix(0.31152619,0,0,0.31152619,-6.7725994,-8.0126102)" /></svg>
