<?xml version="1.0" encoding="UTF-8" standalone="no"?>
<svg
   version="1.1"
   id="Layer_1"
   x="0px"
   y="0px"
   viewBox="0 0 431.88359 500.00001"
   enable-background="new 0 0 1423.911 1656.444"
   xml:space="preserve"
   sodipodi:docname="trump.svg"
   width="431.88361"
   height="500"
   inkscape:version="1.4 (86a8ad7, 2024-10-11)"
   inkscape:export-filename="trump.svg"
   inkscape:export-xdpi="96"
   inkscape:export-ydpi="96"
   xmlns:inkscape="http://www.inkscape.org/namespaces/inkscape"
   xmlns:sodipodi="http://sodipodi.sourceforge.net/DTD/sodipodi-0.dtd"
   xmlns="http://www.w3.org/2000/svg"
   xmlns:svg="http://www.w3.org/2000/svg"
   xmlns:rdf="http://www.w3.org/1999/02/22-rdf-syntax-ns#"
   xmlns:cc="http://creativecommons.org/ns#"
   xmlns:dc="http://purl.org/dc/elements/1.1/"><metadata
     id="metadata3883"><rdf:RDF><cc:Work
         rdf:about=""><dc:format>image/svg+xml</dc:format><dc:type
           rdf:resource="http://purl.org/dc/dcmitype/StillImage" /></cc:Work></rdf:RDF></metadata><defs
     id="defs3881" /><sodipodi:namedview
     pagecolor="#ffffff"
     bordercolor="#666666"
     borderopacity="1"
     objecttolerance="10"
     gridtolerance="10"
     guidetolerance="10"
     inkscape:pageopacity="0"
     inkscape:pageshadow="2"
     inkscape:window-width="2560"
     inkscape:window-height="1351"
     id="namedview3879"
     showgrid="false"
     fit-margin-top="0"
     fit-margin-left="0"
     fit-margin-right="0"
     fit-margin-bottom="0"
     inkscape:zoom="1.796"
     inkscape:cx="216.03563"
     inkscape:cy="249.7216"
     inkscape:window-x="-9"
     inkscape:window-y="-9"
     inkscape:window-maximized="1"
     inkscape:current-layer="Layer_1"
     inkscape:showpageshadow="2"
     inkscape:pagecheckerboard="0"
     inkscape:deskcolor="#d1d1d1"><inkscape:page
       x="0"
       y="0"
       width="431.88358"
       height="500"
       id="page2"
       margin="0"
       bleed="0" /></sodipodi:namedview><g
     id="g3876"
     transform="matrix(0.31152619,0,0,0.31152619,-6.7725994,-8.0126102)"><path
       id="path4190"
       stroke-miterlimit="10"
       d="M 26.217,1628.222 C 4.187,1533.619 171.825,943.585 342.627,867.036 l -7.14,-9.241 c 45.011,-33.124 73.874,-56.862 111.729,-98.288 l 17.641,5.04 9.241,-19.322 c -9.775,3.029 -21.143,6.324 -40.324,10.921 -15.629,-162.65 6.801,-167.273 22.576,-273.115 13.507,-90.626 23.936,-165.684 51.349,-225.572 C 599.556,56.79 776.678,8.265 958.925,34.938 c 170.391,24.938 280.801,105.677 440.726,241.375 -45.618,-7.29 -90.981,-14.92 -149.692,-4.752 4.368,19.216 10.124,42.133 23.883,86.393 20.665,7.301 29.881,18.591 15.961,38.643 -6.346,9.141 -10.363,18.844 -13.441,24.362 -8.106,14.529 -3.908,30.601 7.561,51.244 22.934,41.279 49.155,89.066 62.165,123.49 9.459,25.027 8.397,47.369 -24.362,52.924 -18.207,3.087 -37.007,-0.518 -46.203,10.081 19.639,7.393 26.258,24.55 33.603,41.163 11.643,5.379 19.959,21.885 8.791,28.316 -12.177,7.012 -21.724,26.424 -41.655,36.369 11.138,8.167 32.62,32.623 4.302,59.645 -6.161,0.853 -12.321,-0.177 -18.482,-1.68 -5.556,-0.441 -10.343,11.718 -3.301,24.422 16.149,29.131 21.054,57.528 6.774,78.151 -9.205,13.293 -36.61,38.582 -57.237,30.158 -25.642,29.43 -64.588,30.033 -103.328,31.083 -55.978,15.732 -120.971,55.686 -161.293,60.485 0,0 0.821,11.681 4.2,10.921 50.617,-11.382 444.182,561.008 409.034,570.491 z"
       inkscape:connector-curvature="0"
       style="fill:none;stroke:#000000;stroke-width:5;stroke-miterlimit:10" /><g
       id="g3874"><polygon
         points="26.217,1628.222 1356.931,1628.222 1356.932,1628.222 "
         id="polygon3770"
         style="fill:none" /><path
         d="m 1241.276,151.306 c -25.965,-18.014 -51.573,-34.085 -77.547,-48.208 v 48.208 z"
         id="path3772"
         inkscape:connector-curvature="0"
         style="fill:#b22134" /><path
         d="m 1163.729,397.474 h 125.481 c 0.198,-0.292 0.391,-0.586 0.593,-0.877 13.92,-20.052 4.704,-31.342 -15.961,-38.643 -13.091,-42.112 -18.936,-64.899 -23.235,-83.564 h -86.878 z"
         id="path3774"
         inkscape:connector-curvature="0"
         style="fill:#b22134" /><path
         d="m 1399.651,276.313 c -0.76,-0.645 -1.512,-1.28 -2.27,-1.923 h -9.798 c 4.027,0.636 8.047,1.28 12.068,1.923 z"
         id="path3776"
         inkscape:connector-curvature="0"
         style="fill:#b22134" /><path
         d="m 1163.729,643.642 h 173.524 c 17.241,-9.281 16.474,-27.737 8.835,-47.949 -8.109,-21.457 -21.352,-48.106 -35.732,-75.135 h -146.627 z"
         id="path3778"
         inkscape:connector-curvature="0"
         style="fill:#b22134" /><path
         d="m 1163.729,889.811 h 109.906 c -1.363,-13.49 -6.656,-28.088 -14.854,-42.878 -7.042,-12.704 -2.255,-24.863 3.301,-24.422 6.161,1.503 12.321,2.533 18.482,1.68 26.129,-24.933 9.86,-47.681 -1.561,-57.465 h -115.274 z"
         id="path3780"
         inkscape:connector-curvature="0"
         style="fill:#b22134" /><path
         d="m 947.897,1057.731 c -3.379,0.76 -4.2,-10.921 -4.2,-10.921 24.313,-2.894 57.599,-18.569 92.467,-34.009 H 213.523 c -21.201,37.252 -41.455,79.113 -60.303,123.084 h 880.829 c -41.523,-49.43 -73.894,-80.91 -86.152,-78.154 z"
         id="path3782"
         inkscape:connector-curvature="0"
         style="fill:#b22134" /><path
         d="M 1129.825,1258.97 H 105.72 c -14.542,41.804 -27.557,83.468 -38.69,123.084 h 1150.036 c -28.074,-41.093 -57.938,-83.282 -87.241,-123.084 z"
         id="path3784"
         inkscape:connector-curvature="0"
         style="fill:#b22134" /><path
         d="M 1297.68,1505.138 H 37.124 c -11.445,57.76 -15.738,102.337 -10.907,123.084 h 1330.715 c 10.229,-2.762 -15.869,-53.22 -59.252,-123.084 z"
         id="path3786"
         inkscape:connector-curvature="0"
         style="fill:#b22134" /><rect
         x="757.263"
         y="718.20898"
         width="0"
         height="0"
         id="rect3788"
         style="fill:#3c3a6e" /><rect
         x="958.86798"
         y="718.20898"
         width="0"
         height="0"
         id="rect3790"
         style="fill:#3c3a6e" /><path
         d="m 648.799,87.884 c -5.095,3.279 -10.119,6.719 -15.08,10.299 h 11.737 z"
         id="path3792"
         inkscape:connector-curvature="0"
         style="fill:#3c3a6e" /><path
         d="m 437.012,637.595 -7.564,-5.484 c -0.634,9.525 -0.978,19.923 -0.967,31.569 z"
         id="path3794"
         inkscape:connector-curvature="0"
         style="fill:#3c3a6e" /><path
         d="m 452.996,761.158 -5.78,-1.651 c -10.077,11.028 -19.516,20.795 -28.793,29.827 h 25.429 z"
         id="path3796"
         inkscape:connector-curvature="0"
         style="fill:#3c3a6e" /><path
         d="M 1163.729,766.726 V 643.642 520.558 397.474 274.39 151.306 103.098 C 1100.984,68.981 1036.108,46.234 958.925,34.938 852.826,19.41 748.472,29.385 661.66,80.011 l 5.898,18.173 h 35.839 l -29.005,21.03 11.049,34.046 -28.948,-21.036 -29.012,21.036 11.119,-34.063 -16.694,-12.104 c -21.724,17.151 -42,37.41 -60.524,61.069 l 5.349,16.451 h 35.818 l -28.929,20.975 11.067,34.101 -28.98,-21.076 -28.98,21.076 11.055,-34.063 -1.697,-1.233 c -10.182,16.365 -19.668,34.028 -28.383,53.067 -22.513,49.183 -33.57,108.606 -44.286,178.471 l 2.56,7.875 h 35.818 l -29.005,21.03 11.049,34.046 -26.924,-19.625 c -0.187,1.259 -0.373,2.509 -0.562,3.774 -9.215,61.826 -20.699,89.116 -25.544,133.538 h 13.046 l 11.05,-34.051 11.05,34.051 h 35.839 l -29.021,21.042 11.066,34.034 -28.948,-21.036 -26.371,19.12 c 0.257,23.102 1.855,51.015 5.257,86.416 19.181,-4.597 30.549,-7.892 40.324,-10.921 l -9.241,19.322 -7.658,-2.188 8.754,26.975 h 35.839 l -29.012,21.1 11.056,34.07 -28.948,-21.1 -29.012,21.1 11.126,-34.086 -23.055,-16.767 c -23.973,22.853 -47.363,41.261 -78.46,64.146 l 7.14,9.241 c -11.751,5.266 -23.486,12.976 -35.146,22.774 h 856.248 V 766.726 Z m -75.078,-95.08 -28.98,-21.012 -28.98,21.012 11.071,-34.051 -28.934,-21.025 h 35.839 l 11.05,-34.051 11.051,34.051 h 35.746 l -28.934,21.025 z M 710.374,357.377 h 35.839 l 11.05,-34.051 11.05,34.051 h 35.839 l -28.981,21.013 11.119,34.063 -29.012,-21.036 -28.948,21.036 11.049,-34.046 z m 100.849,-86.429 h 35.839 l 11.05,-34.051 11.05,34.051 h 35.746 l -28.917,21.077 11.054,33.999 -28.98,-21.012 -28.98,21.012 11.067,-34.037 z m 75.823,227.933 -28.98,-21.077 -28.98,21.077 11.067,-34.101 -28.929,-20.975 h 35.818 l 11.071,-34.05 11.071,34.05 h 35.725 l -28.917,21.013 z m -230.539,-89.126 11.071,34.05 h 35.818 l -29.005,21.03 11.049,34.046 -28.948,-21.1 -29.012,21.1 11.119,-34.063 -28.981,-21.013 h 35.818 z m 100.756,86.335 11.05,34.051 h 35.839 l -28.989,21.083 11.126,34.086 -29.012,-21.1 -28.948,21.1 11.056,-34.069 -29.012,-21.1 h 35.839 z m 0,172.858 11.071,34.05 h 35.818 l -28.981,21.013 11.119,34.063 -29.012,-21.036 -28.948,21.036 11.049,-34.046 -29.005,-21.03 h 35.818 z m 82.906,-31.391 -28.946,-20.988 h 35.839 l 11.05,-34.051 11.05,34.051 h 35.746 l -28.934,21.025 11.071,34.051 -28.98,-21.012 -28.98,21.012 z m 147.726,120.517 -29.012,-21.035 -28.948,21.035 11.049,-34.046 -29.005,-21.03 h 35.818 l 11.071,-34.05 11.071,34.05 h 35.818 l -28.981,21.013 z m 17.862,-227.933 -28.989,21.083 11.126,34.086 -29.012,-21.1 -28.948,21.1 11.056,-34.069 -29.012,-21.1 h 35.839 l 11.05,-34.051 11.05,34.051 z m 82.894,-31.26 -28.98,-21.077 -28.98,21.077 11.054,-34.063 -28.917,-21.013 h 35.818 l 11.071,-34.05 11.071,34.05 h 35.725 l -28.917,21.013 z m -100.756,-86.428 -29.012,-21.036 -28.948,21.036 11.049,-34.046 -29.005,-21.03 h 35.839 l 11.05,-34.051 11.05,34.051 h 35.839 l -28.981,21.013 z m 100.756,-86.429 -28.98,-21.012 -28.98,21.012 11.054,-33.999 -28.917,-21.077 h 35.839 l 11.05,-34.051 11.051,34.051 h 35.746 l -28.917,21.077 z m -28.934,-261.891 11.051,34.051 h 35.746 l -28.917,21.013 11.055,34.063 -28.98,-21.012 -28.98,21.012 11.054,-34.063 -28.917,-21.013 h 35.839 z m -89.778,120.479 h 35.818 l -28.981,21.013 11.119,34.063 -29.012,-21.1 -28.948,21.1 11.049,-34.046 -29.005,-21.03 h 35.818 l 11.071,-34.051 z M 858.112,64.133 l 11.05,34.051 h 35.746 l -28.917,21.013 11.054,34.063 -28.98,-21.012 -28.98,21.012 11.067,-34.101 -28.929,-20.975 h 35.839 z m -100.849,86.429 11.071,34.051 h 35.818 l -28.981,21.013 11.119,34.063 -29.012,-21.1 -28.948,21.1 11.049,-34.046 -29.005,-21.03 h 35.818 z M 609.618,270.948 h 35.839 l 11.05,-34.051 11.05,34.051 h 35.839 l -29.005,21.094 11.049,33.982 -28.948,-21.036 -29.012,21.036 11.119,-33.999 z m -100.756,86.429 h 35.746 l 11.05,-34.051 11.05,34.051 h 35.839 l -28.929,20.975 11.067,34.101 -28.98,-21.012 -28.98,21.012 11.055,-34.063 z m 46.796,138.713 11.05,34.051 h 35.839 l -28.937,21.045 11.074,34.124 -28.98,-21.076 -28.98,21.076 11.062,-34.086 -28.925,-21.083 h 35.746 z m 53.96,120.479 h 35.839 l 11.05,-34.051 11.05,34.051 h 35.839 l -29.021,21.042 11.066,34.034 -28.948,-21.036 -29.012,21.036 11.136,-34.051 z m -24.933,141.505 -28.98,-21.012 -28.98,21.012 11.055,-34.063 -28.917,-21.013 h 35.725 l 11.071,-34.05 11.071,34.05 h 35.818 l -28.929,20.975 z m 100.756,86.429 -28.948,-21.1 -29.012,21.1 11.126,-34.086 -28.989,-21.083 h 35.839 l 11.05,-34.05 11.05,34.05 h 35.839 l -29.012,21.1 z m 201.605,0 -28.98,-21.076 -28.98,21.076 11.074,-34.124 -28.937,-21.045 h 35.839 l 11.05,-34.05 11.05,34.05 h 35.746 l -28.925,21.083 z m 201.605,0 -28.98,-21.076 -28.98,21.076 11.062,-34.086 -28.924,-21.083 h 35.839 l 11.05,-34.05 11.051,34.05 h 35.746 l -28.924,21.083 z"
         id="path3798"
         inkscape:connector-curvature="0"
         style="fill:#3c3a6e" /><g
         id="g3872"><path
           d="m 1104.99,986.325 c 38.74,-1.05 77.686,-1.653 103.328,-31.083 20.627,8.424 48.032,-16.865 57.237,-30.158 7.03,-10.153 9.402,-22.192 8.08,-35.273 H 1163.729 307.481 c -32.333,27.171 -64.083,70.5 -93.957,122.991 h 822.641 c 22.958,-10.167 46.601,-20.231 68.825,-26.477 z"
           id="path3800"
           inkscape:connector-curvature="0"
           style="fill:#ffffff" /><path
           d="m 67.03,1382.054 c -12.512,44.522 -22.648,86.454 -29.907,123.084 H 1297.68 c -22.968,-36.988 -50.776,-79.41 -80.614,-123.084 z"
           id="path3802"
           inkscape:connector-curvature="0"
           style="fill:#ffffff" /><path
           d="m 1321.726,648.617 c 6.302,-1.069 11.42,-2.764 15.527,-4.975 h -173.524 v 123.084 h 115.274 c -0.957,-0.82 -1.88,-1.549 -2.741,-2.18 19.931,-9.945 29.478,-29.357 41.655,-36.369 11.168,-6.431 2.852,-22.937 -8.791,-28.316 -7.345,-16.613 -13.964,-33.77 -33.603,-41.163 9.196,-10.599 27.996,-6.994 46.203,-10.081 z"
           id="path3804"
           inkscape:connector-curvature="0"
           style="fill:#ffffff" /><path
           d="M 1034.05,1135.885 H 153.221 c -17.11,39.917 -33.058,81.566 -47.501,123.084 h 1024.104 c -33.886,-46.027 -67.025,-88.86 -95.774,-123.084 z"
           id="path3806"
           inkscape:connector-curvature="0"
           style="fill:#ffffff" /><path
           d="m 1241.276,151.306 h -77.547 V 274.39 h 86.878 c -0.219,-0.952 -0.436,-1.896 -0.648,-2.829 53.536,-9.272 95.972,-3.744 137.625,2.829 h 9.798 c -56.57,-47.955 -106.981,-89.001 -156.106,-123.084 z"
           id="path3808"
           inkscape:connector-curvature="0"
           style="fill:#ffffff" /><path
           d="m 1283.923,472.203 c -11.469,-20.643 -15.667,-36.715 -7.561,-51.244 2.98,-5.342 6.846,-14.605 12.848,-23.485 h -125.481 v 123.084 h 146.627 c -8.689,-16.334 -17.794,-32.806 -26.433,-48.355 z"
           id="path3810"
           inkscape:connector-curvature="0"
           style="fill:#ffffff" /><path
           d="m 627.481,153.26 29.012,-21.036 28.948,21.036 -11.049,-34.046 29.005,-21.03 H 667.558 L 661.66,80.011 c -4.33,2.525 -8.62,5.144 -12.861,7.874 l -3.342,10.299 H 633.72 c -3.982,2.874 -7.924,5.837 -11.815,8.909 l 16.694,12.104 z"
           id="path3812"
           inkscape:connector-curvature="0"
           style="fill:#ffffff" /><polygon
           points="829.085,153.26 858.066,132.248 887.046,153.26 875.991,119.197 904.908,98.184 869.162,98.184 858.112,64.133 847.062,98.184 811.223,98.184 840.152,119.159 "
           id="polygon3814"
           style="fill:#ffffff" /><polygon
           points="1030.69,153.26 1059.67,132.248 1088.651,153.26 1077.596,119.197 1106.513,98.184 1070.767,98.184 1059.717,64.133 1048.667,98.184 1012.828,98.184 1041.745,119.197 "
           id="polygon3816"
           style="fill:#ffffff" /><path
           d="m 555.705,218.612 28.98,21.076 -11.067,-34.101 28.929,-20.975 H 566.73 l -5.349,-16.451 c -7.294,9.316 -14.319,19.155 -21.051,29.544 -1.429,2.205 -2.845,4.432 -4.247,6.686 l 1.697,1.233 -11.055,34.063 z"
           id="path3818"
           inkscape:connector-curvature="0"
           style="fill:#ffffff" /><polygon
           points="728.33,239.688 757.278,218.589 786.29,239.688 775.171,205.625 804.152,184.612 768.334,184.612 757.263,150.562 746.192,184.612 710.374,184.612 739.379,205.642 "
           id="polygon3820"
           style="fill:#ffffff" /><polygon
           points="929.934,239.688 958.882,218.589 987.895,239.688 976.776,205.625 1005.757,184.612 969.939,184.612 958.868,150.562 947.797,184.612 911.979,184.612 940.983,205.642 "
           id="polygon3822"
           style="fill:#ffffff" /><polygon
           points="627.481,326.024 656.493,304.988 685.441,326.024 674.392,292.042 703.396,270.948 667.558,270.948 656.507,236.897 645.457,270.948 609.618,270.948 638.599,292.025 "
           id="polygon3824"
           style="fill:#ffffff" /><polygon
           points="829.085,326.024 858.066,305.012 887.046,326.024 875.991,292.025 904.908,270.948 869.162,270.948 858.112,236.897 847.062,270.948 811.223,270.948 840.152,291.987 "
           id="polygon3826"
           style="fill:#ffffff" /><polygon
           points="1030.69,326.024 1059.67,305.012 1088.651,326.024 1077.596,292.025 1106.513,270.948 1070.767,270.948 1059.717,236.897 1048.667,270.948 1012.828,270.948 1041.745,292.025 "
           id="polygon3828"
           style="fill:#ffffff" /><polygon
           points="526.725,412.453 555.705,391.441 584.685,412.453 573.618,378.352 602.547,357.377 566.709,357.377 555.658,323.326 544.608,357.377 508.862,357.377 537.779,378.39 "
           id="polygon3830"
           style="fill:#ffffff" /><polygon
           points="728.33,412.453 757.278,391.417 786.29,412.453 775.171,378.39 804.152,357.377 768.314,357.377 757.263,323.326 746.213,357.377 710.374,357.377 739.379,378.406 "
           id="polygon3832"
           style="fill:#ffffff" /><polygon
           points="929.934,412.453 958.882,391.417 987.895,412.453 976.776,378.39 1005.757,357.377 969.918,357.377 958.868,323.326 947.818,357.377 911.979,357.377 940.983,378.406 "
           id="polygon3834"
           style="fill:#ffffff" /><path
           d="m 472.787,464.835 29.005,-21.03 h -35.818 l -2.56,-7.875 c -0.4,2.61 -0.801,5.235 -1.201,7.875 -0.555,3.659 -1.11,7.348 -1.666,11.063 -1.198,7.999 -2.405,16.128 -3.635,24.388 l 26.924,19.625 z"
           id="path3836"
           inkscape:connector-curvature="0"
           style="fill:#ffffff" /><polygon
           points="627.481,498.881 656.493,477.781 685.441,498.881 674.392,464.835 703.396,443.805 667.578,443.805 656.507,409.755 645.436,443.805 609.618,443.805 638.599,464.818 "
           id="polygon3838"
           style="fill:#ffffff" /><polygon
           points="829.085,498.881 858.066,477.805 887.046,498.881 875.991,464.818 904.908,443.805 869.183,443.805 858.112,409.755 847.041,443.805 811.223,443.805 840.152,464.781 "
           id="polygon3840"
           style="fill:#ffffff" /><polygon
           points="1030.69,498.881 1059.67,477.805 1088.651,498.881 1077.596,464.818 1106.513,443.805 1070.788,443.805 1059.717,409.755 1048.646,443.805 1012.828,443.805 1041.745,464.818 "
           id="polygon3842"
           style="fill:#ffffff" /><polygon
           points="526.725,585.31 555.705,564.234 584.685,585.31 573.611,551.186 602.547,530.141 566.709,530.141 555.658,496.09 544.608,530.141 508.862,530.141 537.787,551.224 "
           id="polygon3844"
           style="fill:#ffffff" /><polygon
           points="728.33,585.31 757.278,564.21 786.29,585.31 775.164,551.224 804.152,530.141 768.314,530.141 757.263,496.09 746.213,530.141 710.374,530.141 739.386,551.24 "
           id="polygon3846"
           style="fill:#ffffff" /><polygon
           points="929.934,585.31 958.882,564.21 987.895,585.31 976.768,551.224 1005.757,530.141 969.918,530.141 958.868,496.09 947.818,530.141 911.979,530.141 940.991,551.24 "
           id="polygon3848"
           style="fill:#ffffff" /><path
           d="m 428.517,669.73 26.371,-19.12 28.948,21.036 -11.066,-34.034 29.021,-21.042 h -35.839 l -11.05,-34.051 -11.05,34.051 h -13.046 c -0.539,4.945 -0.996,10.101 -1.359,15.541 l 7.564,5.484 -8.531,26.085 c 0.003,1.98 0.015,3.995 0.037,6.05 z"
           id="path3850"
           inkscape:connector-curvature="0"
           style="fill:#ffffff" /><polygon
           points="627.481,671.646 656.493,650.61 685.441,671.646 674.375,637.612 703.396,616.569 667.558,616.569 656.507,582.519 645.457,616.569 609.618,616.569 638.616,637.595 "
           id="polygon3852"
           style="fill:#ffffff" /><polygon
           points="829.085,671.646 858.066,650.633 887.046,671.646 875.974,637.595 904.908,616.569 869.162,616.569 858.112,582.519 847.062,616.569 811.223,616.569 840.169,637.557 "
           id="polygon3854"
           style="fill:#ffffff" /><polygon
           points="1030.69,671.646 1059.67,650.633 1088.651,671.646 1077.579,637.595 1106.513,616.569 1070.767,616.569 1059.717,582.519 1048.667,616.569 1012.828,616.569 1041.762,637.595 "
           id="polygon3856"
           style="fill:#ffffff" /><polygon
           points="526.725,758.074 555.705,737.062 584.685,758.074 573.618,723.973 602.547,702.998 566.73,702.998 555.658,668.948 544.587,702.998 508.862,702.998 537.779,724.011 "
           id="polygon3858"
           style="fill:#ffffff" /><path
           d="m 728.33,758.074 28.948,-21.036 29.012,21.036 -11.119,-34.063 28.981,-21.013 h -35.818 l -11.071,-34.05 -11.071,34.05 h -35.818 l 29.005,21.03 z m 28.933,-39.865 z"
           id="path3860"
           inkscape:connector-curvature="0"
           style="fill:#ffffff" /><path
           d="m 929.934,758.074 28.948,-21.035 29.012,21.035 -11.119,-34.063 28.981,-21.013 h -35.818 l -11.071,-34.05 -11.071,34.05 h -35.818 l 29.005,21.03 z m 28.934,-39.865 z"
           id="path3862"
           inkscape:connector-curvature="0"
           style="fill:#ffffff" /><path
           d="m 425.876,844.503 29.012,-21.1 28.948,21.1 -11.056,-34.07 29.012,-21.1 h -35.839 l -8.754,-26.975 -4.203,-1.201 -9.144,28.175 h -25.429 c -1.495,1.455 -2.987,2.897 -4.476,4.316 l 23.055,16.767 z"
           id="path3864"
           inkscape:connector-curvature="0"
           style="fill:#ffffff" /><polygon
           points="627.481,844.503 656.493,823.403 685.441,844.503 674.384,810.433 703.396,789.334 667.558,789.334 656.507,755.283 645.457,789.334 609.618,789.334 638.607,810.417 "
           id="polygon3866"
           style="fill:#ffffff" /><polygon
           points="829.085,844.503 858.066,823.426 887.046,844.503 875.984,810.417 904.908,789.334 869.162,789.334 858.112,755.283 847.062,789.334 811.223,789.334 840.16,810.379 "
           id="polygon3868"
           style="fill:#ffffff" /><polygon
           points="1030.69,844.503 1059.67,823.426 1088.651,844.503 1077.589,810.417 1106.513,789.334 1070.767,789.334 1059.717,755.283 1048.667,789.334 1012.828,789.334 1041.752,810.417 "
           id="polygon3870"
           style="fill:#ffffff" /></g></g></g></svg>
